<?xml version="1.0" standalone="no"?>
<!DOCTYPE svg PUBLIC "-//W3C//DTD SVG 1.1//EN" "http://www.w3.org/Graphics/SVG/1.1/DTD/svg11.dtd" >
<svg xmlns="http://www.w3.org/2000/svg">
<metadata>
This is a custom SVG webfont generated by Font Squirrel.
Copyright   : Copyright c 1993 Adobe Systems Incorporated  All Rights Reserved Gill Sans is a registered trademark of The Monotype Corporation
Foundry     : Adobe Systems Incorporated
</metadata>
<defs>
<font id="GillSansHeavy" horiz-adv-x="1216" >
<font-face units-per-em="2048" ascent="1638" descent="-410" />
<missing-glyph horiz-adv-x="608" />
<glyph unicode=" "  horiz-adv-x="608" />
<glyph unicode="&#x09;" horiz-adv-x="608" />
<glyph unicode="&#xa0;" horiz-adv-x="608" />
<glyph unicode="!" horiz-adv-x="618" d="M94 197q0 45 17.5 83.5t47 68.5t69.5 46.5t83 16.5q45 0 84 -17.5t68 -46.5t45 -67.5t16 -83.5t-16 -84t-45 -69t-68 -46t-84 -16q-43 0 -83 16t-69.5 46t-47 69t-17.5 84zM94 1098q0 88 21.5 147.5t54.5 94t71 50t70 15.5q33 0 71 -15.5t69.5 -50t52 -94t20.5 -147.5 q0 -63 -13 -148.5t-33.5 -170.5t-43 -159.5t-43.5 -113.5q-12 -25 -28.5 -36t-51.5 -13q-35 2 -51 13t-29 36q-20 41 -43.5 114.5t-44 158.5t-35 170.5t-14.5 148.5z" />
<glyph unicode="&#x22;" horiz-adv-x="1024" d="M49 1145v241h406v-241l-66 -295h-274zM569 1145v241h406v-241l-64 -295h-276z" />
<glyph unicode="#" horiz-adv-x="1366" d="M74 340v217h200l58 272h-258v218h303l78 372h215l-78 -372h330l77 372h218l-80 -372h155v-218h-200l-58 -272h258v-217h-303l-78 -373h-217l80 373h-330l-77 -373h-217l79 373h-155zM489 557h330l58 272h-330z" />
<glyph unicode="$" horiz-adv-x="1280" d="M106 965q0 43 16.5 104t63.5 120.5t134.5 108t228.5 64.5v88h153v-88q113 -16 204 -52t196 -100v-297q-23 18 -62 46t-91 58t-114.5 55.5t-132.5 41.5v-274q84 -29 165 -66t145.5 -90t103.5 -126t39 -171q0 -59 -22.5 -124.5t-75.5 -124t-140.5 -101.5t-214.5 -55v-175 h-153v175q-90 10 -205 48t-219 103v285q92 -74 198.5 -127t225.5 -70v334q-147 37 -235.5 87t-134.5 105.5t-59.5 112t-13.5 105.5zM401 1012q0 -10 4.5 -27.5t19.5 -37t44 -38t80 -30.5v249q-55 -4 -101.5 -31.5t-46.5 -84.5zM702 219q20 4 47 12.5t51.5 23.5t41 41 t16.5 64q0 55 -37 88t-119 68v-297z" />
<glyph unicode="%" horiz-adv-x="1642" d="M104 1063q0 72 27 134.5t73 108.5t108.5 72.5t133.5 26.5q72 0 134.5 -26.5t109.5 -72.5t74 -108.5t27 -134.5t-27 -134.5t-74 -109.5t-109.5 -73.5t-134.5 -26.5t-134 26.5t-108 73.5t-73 109.5t-27 134.5zM219 -37l1002 1442h202l-999 -1442h-205zM313 1061 q0 -55 39 -94t94 -39t95.5 39t40.5 94t-40 95t-96 40q-55 0 -94 -40t-39 -95zM852 307q0 72 26.5 134.5t72.5 108.5t108.5 72.5t134.5 26.5t134.5 -26.5t109.5 -72.5t73.5 -108.5t26.5 -134.5t-26.5 -134t-73.5 -109.5t-109.5 -74t-134.5 -26.5t-134.5 26.5t-108.5 74 t-72.5 109.5t-26.5 134zM1061 305q0 -55 39 -94t94 -39t95 39t40 94t-40 95t-95 40t-94 -40t-39 -95z" />
<glyph unicode="&#x26;" horiz-adv-x="1685" d="M94 338q0 51 13.5 96t48 89t94 94.5t151.5 111.5q-78 80 -115.5 149.5t-37.5 151.5q0 74 30.5 141.5t91 119.5t148.5 83t203 31q113 0 195.5 -35t135 -86t78 -110.5t25.5 -110.5q0 -111 -74.5 -201t-193.5 -149l186 -199q53 47 86 93t68 106h334q-27 -51 -61 -105.5 t-72.5 -106.5t-80.5 -100.5t-85 -87.5l299 -313h-471l-89 92q-98 -66 -211.5 -88t-209.5 -22q-127 0 -218.5 30.5t-150.5 80.5t-88 114.5t-29 130.5zM442 375q0 -18 10.5 -45t32 -49.5t56 -39t86.5 -16.5q72 0 121 22.5t71 39.5l-244 256q-84 -53 -108.5 -96t-24.5 -72z M596 1065q0 -41 41 -88t86 -94q14 6 39.5 19t51.5 34.5t44.5 50.5t18.5 68q0 18 -7.5 39.5t-25 40t-45 30t-66.5 11.5t-65.5 -11.5t-42 -28t-22.5 -36t-7 -35.5z" />
<glyph unicode="'" horiz-adv-x="569" d="M82 1145v241h405v-241l-63 -295h-277z" />
<glyph unicode="(" horiz-adv-x="788" d="M76 457q0 129 28.5 241.5t75.5 209t104.5 175t116 141t109.5 107.5t86 74h264q-53 -57 -123.5 -140t-133 -198t-105.5 -264.5t-43 -341.5q0 -195 43 -344.5t105.5 -263t133 -195.5t123.5 -139h-264q-49 37 -136 115.5t-173 197.5t-148.5 274.5t-62.5 350.5z" />
<glyph unicode=")" horiz-adv-x="788" d="M-72 -481q53 57 124 140t133.5 197.5t105.5 264t43 342.5q0 195 -43 344t-105.5 263t-133 195t-124.5 140h265q33 -25 84 -69t109 -104.5t115.5 -139t104.5 -175t77 -209t30 -241.5t-29 -241.5t-76 -209t-104.5 -175.5t-115.5 -141t-109.5 -107.5t-85.5 -73.5h-265z" />
<glyph unicode="*" horiz-adv-x="1153" d="M78 958q0 27 9 66t23.5 75t34 61.5t39.5 25.5q23 0 37.5 -8.5t48.5 -34.5l224 -172q12 14 19 19t22 11l-84 252q-16 45 -19.5 59.5t-3.5 24.5q0 23 13.5 36t36 20.5t49 9.5t55.5 2q10 0 33.5 -1t48 -7t44 -18.5t19.5 -37.5q0 -18 -8 -43.5t-12 -35.5l-91 -261 q16 -8 23.5 -13t22.5 -17l215 166q39 29 50 37t29 8q8 0 19.5 -2t23 -12.5t24.5 -32t28 -58.5q4 -12 14 -48t10 -71q0 -47 -33.5 -55t-87.5 -8h-268q-2 -18 -4 -27.5t-12 -25.5l215 -152q59 -41 69.5 -58.5t10.5 -25.5q0 -27 -27 -57.5t-61.5 -56t-69.5 -42t-49 -16.5 q-27 0 -42.5 26.5t-31.5 80.5l-78 252q-4 0 -12 -2.5t-16 -2.5t-16.5 2.5t-12.5 2.5l-84 -254q-16 -49 -29.5 -75t-44.5 -26q-23 0 -57.5 17.5t-67.5 44t-57.5 55.5t-24.5 51q0 14 9.5 27.5t58.5 48.5l229 160q-8 16 -11 25.5t-5 27.5l-275 -2q-18 0 -37.5 1t-37 7t-27.5 19 t-10 38z" />
<glyph unicode="+" horiz-adv-x="1366" d="M121 569v248h438v438h248v-438h438v-248h-438v-438h-248v438h-438z" />
<glyph unicode="," horiz-adv-x="618" d="M72 203q0 41 16 78.5t44 66.5t67 46.5t86 17.5q68 0 117 -29t79.5 -75t46 -102t15.5 -110q0 -66 -24.5 -135.5t-81 -131.5t-146.5 -108.5t-219 -64.5v63q51 18 82.5 51t49 72t22.5 81t3 83q-82 23 -119.5 74t-37.5 123z" />
<glyph unicode="-" horiz-adv-x="1003" d="M174 348v334h655v-334h-655z" />
<glyph unicode="." horiz-adv-x="575" d="M74 197q0 45 17.5 83.5t47 68.5t69.5 46.5t83 16.5q45 0 84 -17.5t67.5 -46.5t45 -67.5t16.5 -83.5t-16.5 -84t-45 -69t-67.5 -46t-84 -16q-43 0 -83 16t-69.5 46t-47 69t-17.5 84z" />
<glyph unicode="/" horiz-adv-x="1083" d="M31 -18l753 1423h269l-754 -1423h-268z" />
<glyph unicode="0" d="M68 692q0 186 45 321.5t119.5 222.5t172 128t203.5 41t203.5 -41t172.5 -128t120 -222t45 -322q0 -188 -45 -322t-120 -220.5t-172 -127t-204 -40.5q-106 0 -203.5 40.5t-172 127t-119.5 220.5t-45 322zM463 692q0 -70 2 -143.5t16.5 -134t43 -99.5t83.5 -39t84 39 t43.5 99.5t16.5 134.5t2 143q0 59 -2 132t-16.5 137.5t-43 107.5t-84.5 43q-55 0 -83.5 -43t-43 -107.5t-16.5 -137.5t-2 -132z" />
<glyph unicode="1" d="M418 0v1386h379v-1386h-379z" />
<glyph unicode="2" d="M84 0v27q76 72 160 169t162 189q45 53 91 110.5t82.5 119t60.5 127t24 137.5q0 98 -55.5 156.5t-141.5 58.5q-104 0 -188 -54.5t-150 -121.5v327q33 20 77 48t99 52.5t123 42t150 17.5q96 0 179 -28.5t144.5 -84t96 -135.5t34.5 -180q0 -74 -18.5 -139.5t-44 -118.5 t-52 -95t-45.5 -69q-84 -125 -184 -244h449v-311h-1053z" />
<glyph unicode="3" d="M147 82v311q25 -23 60 -46t76 -43.5t87 -34t95 -13.5t87 14.5t62.5 38t37 52t12.5 57.5q0 78 -60.5 130t-171.5 54h-45v223h53q57 0 96 17.5t62 43t33 53.5t10 48q0 31 -12.5 59.5t-35 51t-55 36t-71.5 13.5q-74 0 -148.5 -27.5t-134.5 -68.5v266q72 29 164 58.5 t215 29.5q127 0 216 -39t144.5 -96.5t80 -121t24.5 -114.5q0 -47 -16.5 -94t-42 -88t-59 -74t-70.5 -53q29 -16 65.5 -41t68.5 -64.5t54.5 -97t22.5 -137.5q0 -115 -46.5 -191.5t-116 -123.5t-149.5 -67.5t-147 -20.5q-55 0 -116.5 8t-121 21.5t-113 32t-94.5 38.5z" />
<glyph unicode="4" d="M47 299v264l635 823h297v-849h164v-238h-164v-299h-369v299h-563zM266 537h344v444z" />
<glyph unicode="5" d="M111 115v299q27 -18 71.5 -44t98 -48.5t108.5 -38t105 -15.5q57 0 93 18.5t56.5 44t27.5 53.5t7 48q0 31 -11.5 64.5t-41 60.5t-80.5 44t-131 17q-82 0 -132.5 -15t-76.5 -25v808h803v-292h-496v-238q18 2 39.5 4t48.5 2q109 0 195 -34.5t146 -94t92 -137.5t32 -162 q0 -88 -29.5 -170t-91 -144.5t-155 -100t-218.5 -37.5q-123 0 -240.5 31.5t-219.5 101.5z" />
<glyph unicode="6" d="M68 530q0 119 39.5 239t112.5 231.5t174.5 215t226.5 191.5l342 -113q-102 -86 -194.5 -180t-158.5 -194q37 10 92 10q90 0 172 -32t143.5 -90t97.5 -142t36 -187q0 -96 -38 -186t-107.5 -158.5t-168 -110.5t-221.5 -42q-137 0 -239.5 46t-171 122.5t-103 176 t-34.5 203.5zM428 485q0 -80 50 -136t128 -56q51 0 87 20.5t57.5 49t31 62.5t9.5 60q0 51 -16.5 87t-42 57.5t-57.5 32t-63 10.5q-53 0 -89 -19.5t-57.5 -49.5t-29.5 -61.5t-8 -56.5z" />
<glyph unicode="7" d="M92 1079v307h1051v-40l-592 -1364l-322 102l424 995h-561z" />
<glyph unicode="8" d="M68 373q0 106 59 198.5t164 143.5q-74 45 -125 112.5t-51 184.5q0 55 23.5 122.5t79.5 128t151.5 101.5t238.5 41q147 0 242.5 -41t152 -101.5t78 -128t21.5 -122.5q0 -117 -49 -182.5t-127 -114.5q100 -51 161.5 -143.5t61.5 -198.5q0 -37 -17.5 -103.5t-74 -130 t-164 -110.5t-285.5 -47q-182 0 -289.5 47t-163 110.5t-71.5 130t-16 103.5zM424 410q0 -55 17.5 -94.5t44 -64t60.5 -36.5t64 -12q35 0 68 14t58.5 40t41 64.5t15.5 88.5q0 51 -17.5 89t-44 63.5t-59.5 38.5t-64 13q-33 0 -65.5 -13t-59 -38.5t-43 -64.5t-16.5 -88z M465 985q0 -84 45 -134t98 -50t98.5 50t45.5 134q0 25 -6.5 56.5t-21.5 60t-43 49t-69 20.5q-43 0 -71.5 -18t-45 -47t-23.5 -61.5t-7 -59.5z" />
<glyph unicode="9" d="M66 907q0 96 37.5 186.5t107.5 159t168 110.5t221 42q137 0 239.5 -47t171 -124t103.5 -175t35 -203q0 -121 -40 -239.5t-112.5 -230.5t-174 -215t-226.5 -191l-342 112q102 86 194.5 180.5t157.5 194.5q-37 -10 -92 -10q-90 0 -172 31.5t-143.5 90t-97 142.5t-35.5 186z M426 901q0 -51 16.5 -87t42 -57.5t57 -31.5t62.5 -10q53 0 89 19.5t57.5 49t29.5 61.5t8 56q0 80 -50 136.5t-128 56.5q-51 0 -87 -20.5t-57.5 -49.5t-30.5 -62.5t-9 -60.5z" />
<glyph unicode=":" horiz-adv-x="575" d="M74 197q0 45 17.5 83.5t47 68.5t69.5 46.5t83 16.5q45 0 84 -17.5t67.5 -46.5t45 -67.5t16.5 -83.5t-16.5 -84t-45 -69t-67.5 -46t-84 -16q-43 0 -83 16t-69.5 46t-47 69t-17.5 84zM74 819q0 49 18.5 89t48 69t68.5 44t80 15q43 0 81 -16t67.5 -45t47 -69t17.5 -85 t-17.5 -85t-46 -68.5t-67.5 -46t-84 -17.5q-43 0 -82 16.5t-69 46t-46 68.5t-16 84z" />
<glyph unicode=";" horiz-adv-x="618" d="M72 203q0 31 12 66.5t39 67.5t66.5 53.5t95.5 21.5q68 0 117 -29t79.5 -75t46 -102t15.5 -110q0 -66 -24.5 -135.5t-81 -131.5t-146.5 -108.5t-219 -64.5v63q51 18 82.5 51t49 72t22.5 81t3 83q-82 23 -119.5 74t-37.5 123zM74 819q0 49 18.5 89t48 69t68.5 44t80 15 q43 0 81 -16t67.5 -45t47 -69t17.5 -85t-17.5 -85t-46 -68.5t-67.5 -46t-84 -17.5q-43 0 -82 16.5t-69 46t-46 68.5t-16 84z" />
<glyph unicode="&#x37e;" horiz-adv-x="618" d="M72 203q0 31 12 66.5t39 67.5t66.5 53.5t95.5 21.5q68 0 117 -29t79.5 -75t46 -102t15.5 -110q0 -66 -24.5 -135.5t-81 -131.5t-146.5 -108.5t-219 -64.5v63q51 18 82.5 51t49 72t22.5 81t3 83q-82 23 -119.5 74t-37.5 123zM74 819q0 49 18.5 89t48 69t68.5 44t80 15 q43 0 81 -16t67.5 -45t47 -69t17.5 -85t-17.5 -85t-46 -68.5t-67.5 -46t-84 -17.5q-43 0 -82 16.5t-69 46t-46 68.5t-16 84z" />
<glyph unicode="&#x3c;" horiz-adv-x="1366" d="M121 582v223l1124 467v-264l-778 -314l778 -313v-266z" />
<glyph unicode="=" horiz-adv-x="1366" d="M121 326v247h1124v-247h-1124zM121 809v248h1124v-248h-1124z" />
<glyph unicode="&#x3e;" horiz-adv-x="1366" d="M121 115v266l778 313l-778 314v264l1124 -467v-223z" />
<glyph unicode="?" horiz-adv-x="788" d="M74 1096l94 278q37 10 82 20.5t108 10.5q96 0 166 -26.5t114 -67.5t65.5 -93.5t21.5 -103.5q0 -47 -7 -84t-26.5 -72.5t-56.5 -76.5t-96 -93q-29 -25 -55.5 -60.5t-47 -72.5t-32 -72.5t-11.5 -62.5q0 -68 -76 -67q-31 0 -49 12t-24 29q-6 14 -10 35l-6 43q-3 22 -4 41.5 t-1 31.5q0 31 5 62.5t12.5 57.5t13.5 43t8 23q8 20 20.5 45t23.5 51.5t19.5 50t8.5 42.5q0 12 -4 29.5t-17.5 34t-38 27.5t-65.5 11t-67.5 -8t-51.5 -18h-16zM106 197q0 45 17.5 83.5t47.5 68.5t70 46.5t83 16.5q45 0 83.5 -17.5t67.5 -46.5t45.5 -67.5t16.5 -83.5 t-16.5 -84t-45.5 -69t-67.5 -46t-83.5 -16q-43 0 -83 16t-70 46t-47.5 69t-17.5 84z" />
<glyph unicode="@" horiz-adv-x="1968" d="M59 414q0 180 59.5 357t182.5 318.5t313.5 228.5t452.5 87q201 0 357.5 -60.5t263 -164t162 -239.5t55.5 -288q0 -137 -48.5 -265t-134.5 -227.5t-204.5 -159.5t-260.5 -60q-49 0 -80.5 8t-52 23.5t-33 36t-18.5 44.5q-12 -12 -33.5 -30.5t-54.5 -37t-78 -31.5t-102 -13 q-80 0 -148.5 28.5t-119 82.5t-79 133t-28.5 177t34 211t100.5 209.5t165.5 160t228 63.5q20 0 52 -3.5t69 -16.5t74 -39.5t68 -74.5l22 109h260l-147 -705q-8 -37 -11.5 -55t-3.5 -33q0 -16 5.5 -26t12.5 -14.5t13 -5.5t8 -1q35 0 93.5 38t113.5 106.5t96 164t41 212.5 q0 82 -30.5 180t-106.5 183t-204 142.5t-320 57.5q-174 0 -302 -43t-220 -113t-150.5 -158t-92.5 -180t-46 -178t-12 -150q0 -121 39.5 -245.5t136 -227t256 -167t397.5 -64.5q170 0 288 29.5t196.5 70.5t122.5 86t69 74h209q-61 -127 -157.5 -211t-211.5 -135t-243 -72.5 t-257 -21.5q-109 0 -242.5 18.5t-275.5 73.5q-135 53 -231 141t-157.5 195.5t-90.5 227.5t-29 239zM696 350q0 -66 15.5 -108.5t39 -70.5t52 -39t57.5 -11q82 0 138.5 55t90 132t49 159t15.5 133q0 10 -3 47t-19.5 78t-51.5 72.5t-96 31.5q-78 0 -132 -49t-89 -122.5 t-50.5 -156.5t-15.5 -151z" />
<glyph unicode="A" horiz-adv-x="1705" d="M10 0l613 1386h462l611 -1386h-428l-113 281h-602l-115 -281h-428zM651 522h408l-203 506z" />
<glyph unicode="B" horiz-adv-x="1533" d="M174 0v1386h670q133 0 228 -25.5t155.5 -69.5t88 -103.5t27.5 -126.5q0 -63 -19 -114.5t-48 -89.5t-62.5 -63.5t-64.5 -37.5q63 -25 117.5 -57.5t92.5 -76.5t59.5 -100.5t21.5 -128.5q0 -88 -31 -159.5t-90 -124t-145.5 -81t-198.5 -28.5h-801zM592 233h170 q258 0 258 177q0 178 -258 178h-170v-355zM592 821h90q66 0 116 6.5t85 23.5t52 50t17 86t-19.5 86t-54 50.5t-85 23.5t-113.5 6h-88v-332z" />
<glyph unicode="C" horiz-adv-x="1521" d="M84 694q0 184 64.5 317.5t174 221.5t252 130t299.5 42q88 0 167 -11.5t146.5 -26.5t124 -33.5t97.5 -33.5v-368q-29 18 -73 43.5t-99 49.5t-122.5 40t-145.5 16q-90 0 -172 -27.5t-146.5 -77.5t-102.5 -123t-38 -165q0 -80 31.5 -149.5t90 -121.5t138.5 -82t176 -30 q84 0 156 16.5t131 39t105 49t77 45.5v-351q-137 -72 -273 -97t-274 -25q-184 0 -329.5 52t-247 145t-154.5 224t-53 291z" />
<glyph unicode="D" horiz-adv-x="1683" d="M174 0v1386h576q131 0 227 -15t169 -39.5t123 -55.5t89 -62q98 -80 169.5 -218t71.5 -328q0 -123 -27.5 -214.5t-67.5 -157t-85 -109.5t-80 -70q-59 -47 -129.5 -70.5t-134 -34t-112 -11.5t-62.5 -1h-727zM592 287h178q55 0 126 10t132.5 51t103.5 120t42 218 q0 137 -42 221t-103.5 128t-132.5 58.5t-126 14.5h-178v-821z" />
<glyph unicode="E" horiz-adv-x="1325" d="M174 0v1386h1028v-278h-610v-254h582v-279h-582v-296h627v-279h-1045z" />
<glyph unicode="F" horiz-adv-x="1273" d="M174 0v1386h993v-278h-575v-268h575v-279h-575v-561h-418z" />
<glyph unicode="G" horiz-adv-x="1636" d="M84 696q0 70 12.5 143.5t40 144.5t69.5 134.5t103 110.5q74 57 148.5 92t147.5 53.5t144.5 24.5t141.5 6q104 0 192 -11.5t159 -27.5t124 -32.5t88 -28.5v-328q-31 18 -74 39.5t-99 42t-128 34t-160 13.5q-147 0 -241.5 -44t-147.5 -108.5t-73.5 -136.5t-20.5 -127 q0 -78 27.5 -147.5t82 -123.5t136.5 -86t190 -32q53 0 94 6t76 15v163h-188v279h553v-666q-61 -23 -110.5 -39t-113.5 -32q-78 -18 -177 -31.5t-212 -13.5q-154 0 -295 40.5t-249.5 129t-174 222.5t-65.5 322z" />
<glyph unicode="H" horiz-adv-x="1812" d="M174 0v1386h418v-509h629v509h417v-1386h-417v541h-629v-541h-418z" />
<glyph unicode="I" horiz-adv-x="770" d="M176 0v1386h418v-1386h-418z" />
<glyph unicode="J" horiz-adv-x="811" d="M-47 -96q53 2 96 5t75 14t52.5 34t30.5 63q4 18 6 57.5t3 84.5t1 87v64v1073h418v-1214q0 -111 -11.5 -220.5t-58.5 -197.5t-140 -143t-259 -55q-53 0 -85 4t-65 10z" />
<glyph unicode="K" horiz-adv-x="1640" d="M174 0v1386h418v-620l502 620h454l-516 -649l600 -737h-510l-530 649v-649h-418z" />
<glyph unicode="L" horiz-adv-x="1296" d="M174 0v1386h418v-1054h635v-332h-1053z" />
<glyph unicode="M" horiz-adv-x="1961" d="M174 0v1386h379l426 -520l428 520h379v-1386h-418v803l-377 -465h-33l-378 465v-803h-406z" />
<glyph unicode="N" horiz-adv-x="1853" d="M174 0v1386h371l717 -768v768h417v-1386h-372l-719 772v-772h-414z" />
<glyph unicode="O" horiz-adv-x="1742" d="M84 694q0 135 46 262t143.5 227.5t246 161t350.5 60.5q199 0 346.5 -58.5t246 -156.5t146.5 -226t48 -270q0 -143 -49 -272t-147.5 -227.5t-246 -155.5t-344.5 -57q-203 0 -351 61t-245.5 160.5t-143.5 227.5t-46 263zM510 694q0 -78 24.5 -143.5t70.5 -112.5 t112.5 -73.5t152.5 -26.5t154 26.5t114 73.5t69.5 112.5t23.5 143.5q0 76 -23.5 141.5t-69.5 112.5t-114 74t-154 27q-172 0 -266 -98.5t-94 -256.5z" />
<glyph unicode="P" horiz-adv-x="1431" d="M174 0v1386h692q145 0 242.5 -41.5t157 -106t84 -141.5t24.5 -147t-24.5 -145.5t-84 -139t-156.5 -104.5t-243 -41h-274v-520h-418zM592 786h90q74 0 125 6.5t82 25t45 50t14 80.5q0 100 -59.5 136t-208.5 36h-88v-334z" />
<glyph unicode="Q" horiz-adv-x="1742" d="M84 694q0 135 46 262t143.5 227.5t246 161t350.5 60.5q205 0 353.5 -60.5t245 -161t142.5 -227.5t46 -262q0 -133 -37 -238.5t-97.5 -186.5t-139 -138t-162.5 -92q35 -16 84 -36.5t110.5 -39t134 -30t154.5 -11.5l12 -22l-293 -267q-180 39 -351 104.5t-331 156.5 q-61 35 -108 65.5t-92 73.5q-80 29 -161 83t-146.5 135t-107.5 191.5t-42 251.5zM510 694q0 -78 24.5 -143.5t70.5 -112.5t112.5 -73.5t152.5 -26.5t154 26.5t114 73.5t69.5 112.5t23.5 143.5q0 76 -23.5 141.5t-69.5 112.5t-114 74t-154 27q-172 0 -266 -98.5t-94 -256.5z " />
<glyph unicode="R" horiz-adv-x="1531" d="M174 0v1386h711q139 0 233 -45t150.5 -110.5t81 -140t24.5 -134.5q0 -88 -27.5 -149.5t-64.5 -101t-76 -62t-59 -33.5q29 -18 53.5 -35.5t50 -48t55 -84t70.5 -141.5l140 -301h-449l-109 246q-47 104 -84.5 163.5t-74.5 88t-75 36t-85 7.5h-47v-541h-418zM592 786h90 q74 0 125 7.5t83 26t45 49t13 79.5q0 98 -63.5 135t-204.5 37h-88v-334z" />
<glyph unicode="S" horiz-adv-x="1253" d="M119 1004q0 80 29.5 152.5t91 127.5t155.5 88t223 33q98 0 179.5 -15.5t140.5 -36t97 -40t48 -25.5v-325q-31 20 -73.5 47.5t-96 52t-115 41t-128.5 16.5q-86 0 -117 -33.5t-31 -70.5q0 -43 36 -73t124 -71q104 -49 189 -94t145.5 -98t93.5 -119.5t33 -157.5 q0 -98 -39 -177t-108.5 -133t-166 -82.5t-211.5 -28.5q-14 0 -56 2t-106.5 12t-147.5 32.5t-177 63.5v340q29 -18 73 -44t99 -50.5t118.5 -40.5t133.5 -16q61 0 96 14t51.5 31.5t19.5 34t3 22.5q0 31 -17.5 55.5t-46 45t-66.5 38t-81 35.5q-74 31 -144.5 70t-126 91t-90 123 t-34.5 163z" />
<glyph unicode="T" horiz-adv-x="1572" d="M70 1049v337h1433v-337h-508v-1049h-417v1049h-508z" />
<glyph unicode="U" horiz-adv-x="1771" d="M154 621v765h417v-657q0 -109 23.5 -184.5t65.5 -122.5t100.5 -69.5t126.5 -22.5t125 21.5t99 69.5t65.5 122.5t23.5 183.5v659h418v-765q0 -188 -70.5 -311.5t-179 -196t-236.5 -102t-245 -29.5q-78 0 -162 12t-166 42t-155.5 78t-129 118.5t-88 167t-32.5 221.5z" />
<glyph unicode="V" horiz-adv-x="1546" d="M16 1386h435l317 -800l326 800h436l-625 -1404h-276z" />
<glyph unicode="W" horiz-adv-x="2437" d="M16 1386h433l288 -768l330 768h299l324 -768l301 768h428l-600 -1404h-242l-360 817l-369 -817h-244z" />
<glyph unicode="X" horiz-adv-x="1748" d="M10 0l588 721l-561 665h534l95 -116q18 -23 41.5 -52.5t49 -63.5t53.5 -68.5t52 -67.5q41 61 84 120.5t90 116.5l109 131h524l-539 -665l609 -721h-537l-147 174q-6 8 -30 36t-53.5 63.5t-59 72.5t-50.5 66q-43 -57 -71.5 -96.5t-50 -67t-39 -48t-35.5 -44.5l-127 -156 h-529z" />
<glyph unicode="Y" horiz-adv-x="1538" d="M12 1386h434l318 -436l319 436h443l-543 -751v-635h-418v627z" />
<glyph unicode="Z" horiz-adv-x="1492" d="M39 0l717 1055h-658v331h1348l-715 -1054h715v-332h-1407z" />
<glyph unicode="[" horiz-adv-x="917" d="M164 -463v1849h706v-235h-364v-1378h364v-236h-706z" />
<glyph unicode="\" horiz-adv-x="1083" d="M31 1405h268l754 -1423h-269z" />
<glyph unicode="]" horiz-adv-x="917" d="M47 -227h365v1378h-365v235h707v-1849h-707v236z" />
<glyph unicode="^" horiz-adv-x="1351" d="M129 573l408 813h278l408 -813h-353l-192 492l-195 -492h-354z" />
<glyph unicode="_" horiz-adv-x="1024" d="M-12 -154h1048v-102h-1048v102z" />
<glyph unicode="`" horiz-adv-x="681" d="M0 1470h389l172 -317h-192z" />
<glyph unicode="a" horiz-adv-x="1169" d="M72 238q0 74 29.5 126t80.5 91t122 66.5t155 53.5q57 18 92 29.5t56.5 19t34.5 12.5t28 13q0 29 -4 56.5t-20.5 50t-48.5 37t-87 14.5q-66 0 -124 -16.5t-109.5 -43t-94.5 -60.5t-76 -66v276q102 72 225.5 105.5t254.5 33.5q227 0 335.5 -88t108.5 -233v-393 q0 -53 10.5 -82t38.5 -29q27 0 52.5 11t39.5 18v-189q-53 -23 -126.5 -46t-180.5 -23q-51 0 -82.5 11t-50 28.5t-28 36t-13.5 32.5q-20 -16 -48 -35.5t-64.5 -36t-87 -26.5t-115.5 -10q-90 0 -148.5 24.5t-93.5 62t-48 83t-13 86.5zM424 281q0 -55 31.5 -80t66.5 -25 q20 0 43 8.5t42.5 19.5t35.5 22.5t27 19.5v241q-53 -23 -98.5 -43t-78 -43.5t-51 -52t-18.5 -67.5z" />
<glyph unicode="b" horiz-adv-x="1304" d="M113 0v1386h360v-428q33 25 102.5 51.5t169.5 26.5q129 0 221.5 -46t152 -121.5t87 -172t27.5 -194.5q0 -141 -44 -239.5t-111.5 -161t-149.5 -91t-158 -28.5q-66 0 -115 12t-83.5 29.5t-59.5 37t-39 31.5v-92h-360zM473 324q27 -25 71 -48.5t111 -23.5q18 0 52 8t67 35 t56.5 78t23.5 137q0 70 -17.5 121t-46 84t-63.5 48t-72 15q-59 0 -109 -24.5t-73 -40.5v-389z" />
<glyph unicode="c" horiz-adv-x="1046" d="M72 512q0 39 8 93t31.5 112.5t63.5 115t103.5 102.5t153.5 73.5t211 27.5t194.5 -19.5t133.5 -39.5v-283q-25 8 -58.5 17.5t-71.5 17.5t-76 14.5t-69 6.5q-41 0 -84 -12.5t-78.5 -40t-59 -73.5t-23.5 -112t23.5 -112t59 -75.5t78.5 -43t84 -13.5q63 0 144.5 20.5 t146.5 41.5v-283q-61 -23 -142 -44t-202 -21t-211 28.5t-153.5 74.5t-103.5 103.5t-63.5 117t-31.5 113.5t-8 93z" />
<glyph unicode="d" horiz-adv-x="1304" d="M72 502q0 98 27.5 194.5t87 172t151.5 121.5t221 46q117 0 177.5 -27.5t94.5 -50.5v428h361v-1386h-361v92q-16 -12 -39.5 -31.5t-58.5 -37t-84 -29.5t-114 -12q-78 0 -160 28.5t-149.5 91t-110.5 161t-43 239.5zM451 510q0 -74 18 -123t47 -80t63.5 -43t69.5 -12 q76 0 120 27.5t62 44.5v389q-41 23 -82.5 44t-99.5 21q-84 0 -141 -69.5t-57 -198.5z" />
<glyph unicode="e" horiz-adv-x="1220" d="M72 514q0 111 36.5 206t109.5 165.5t182.5 110.5t254.5 40q86 0 175.5 -27.5t162 -90t119.5 -167t47 -257.5v-72h-717q20 -96 102.5 -153.5t186.5 -57.5t204.5 28.5t197.5 73.5v-223q-20 -10 -59.5 -28.5t-99 -36t-139 -30.5t-180.5 -13q-145 0 -254.5 42t-182.5 113.5 t-109.5 168.5t-36.5 208zM432 600h389q0 98 -48 156.5t-140 58.5q-88 0 -144.5 -58.5t-56.5 -156.5z" />
<glyph unicode="f" horiz-adv-x="755" d="M14 721v244h166v18q0 72 20.5 146.5t71 136t134 100.5t210.5 39q55 0 101.5 -6t79.5 -13v-258q-29 6 -65 12.5t-68 6.5q-57 0 -90 -37t-33 -109v-36h182v-244h-182v-721h-361v721h-166z" />
<glyph unicode="g" horiz-adv-x="1153" d="M51 -213q0 14 6 46t31 65.5t73 62.5t132 39q-37 14 -62.5 51t-25.5 78q0 20 7 46t24.5 51.5t47 46t76.5 28.5q-49 12 -99 38t-90 66.5t-65.5 96t-25.5 127.5q0 102 39 176t106.5 121t158.5 69.5t196 22.5h559v-217h-178q29 -25 61.5 -74t32.5 -127q0 -63 -27 -120.5 t-77 -102.5t-125.5 -74t-174.5 -35q-18 0 -39.5 -3t-40 -10t-32 -20.5t-13.5 -33.5q0 -37 40 -46.5t143 -17.5q25 -2 64.5 -6t82.5 -15.5t87 -30.5t79 -51t56.5 -79t21.5 -113q0 -70 -26.5 -129t-88 -102t-162 -67.5t-245.5 -24.5q-143 0 -244 20.5t-163 56t-91 85 t-29 106.5zM358 -195q0 -43 30 -66.5t69 -33.5t76.5 -12t54.5 -2q98 0 161.5 28.5t63.5 90.5q0 39 -27.5 60t-63.5 31.5t-73 12.5t-55 2q-125 0 -180.5 -26t-55.5 -85zM393 625q0 -66 45 -114t123 -48t129 49t51 117q0 39 -15 70.5t-39.5 54t-54.5 34t-61 11.5 q-45 0 -78.5 -16.5t-55 -43t-33 -57t-11.5 -57.5z" />
<glyph unicode="h" horiz-adv-x="1302" d="M115 0v1386h360v-514q94 100 184.5 132t176.5 32q82 0 150.5 -22.5t115.5 -72.5t73.5 -128t26.5 -188v-625h-360v528q1 25 1 45q0 34 -10 73q-11 42 -42 77t-97 35q-41 0 -73.5 -16.5t-60.5 -41t-49.5 -52t-35.5 -50.5v-598h-360z" />
<glyph unicode="i" horiz-adv-x="626" d="M133 0v1018h361v-1018h-361zM162 1253q0 63 44 107.5t107 44.5t107.5 -44t44.5 -108q0 -63 -44 -107t-108 -44q-63 0 -107 44t-44 107z" />
<glyph unicode="j" horiz-adv-x="626" d="M-18 -207q51 16 80.5 39t45 58.5t20.5 89t5 129.5v909h361v-1077q0 -121 -41 -202t-101.5 -130t-128 -69.5t-121.5 -20.5zM162 1253q0 63 44 107.5t107 44.5t107.5 -44t44.5 -108q0 -63 -44 -107t-108 -44q-63 0 -107 44t-44 107z" />
<glyph unicode="k" horiz-adv-x="1325" d="M113 0v1386h364v-813l357 445h432l-398 -475l457 -543h-457l-391 483v-483h-364z" />
<glyph unicode="l" horiz-adv-x="626" d="M133 0v1386h361v-1386h-361z" />
<glyph unicode="m" horiz-adv-x="2027" d="M115 0v1018h360v-146q78 84 162 124t197 40q49 0 98 -10t93 -32.5t81 -60.5t61 -95q82 92 174.5 145t221.5 53q188 0 277 -108.5t89 -306.5v-621h-360v543q0 215 -148 215q-45 0 -80.5 -19.5t-63.5 -46t-46.5 -53.5t-28.5 -41v-598h-360v543q0 47 -7.5 87t-23.5 68.5 t-45 44t-74 15.5q-43 0 -75.5 -17.5t-59.5 -42t-46 -52.5t-36 -48v-598h-360z" />
<glyph unicode="n" horiz-adv-x="1302" d="M115 0v1018h360v-146q86 92 173 128t188 36q141 0 216.5 -55t108.5 -129t37 -146.5t4 -107.5v-598h-360v528q0 25 -1 64t-14.5 76t-44 63.5t-88.5 26.5q-45 0 -80.5 -18.5t-62.5 -45t-45.5 -53.5t-30.5 -43v-598h-360z" />
<glyph unicode="o" horiz-adv-x="1310" d="M72 510q0 111 36.5 207t109.5 166.5t182.5 111.5t254.5 41t255 -41t182.5 -111.5t109.5 -166.5t37 -207t-37 -208t-109.5 -168t-182 -111.5t-255.5 -40.5q-145 0 -254.5 40.5t-182.5 111.5t-109.5 168t-36.5 208zM451 510q0 -117 51 -188.5t153 -71.5t153.5 71.5 t51.5 188.5t-51 187.5t-154 70.5q-102 0 -153 -70.5t-51 -187.5z" />
<glyph unicode="p" horiz-adv-x="1304" d="M113 -463v1481h360v-92q14 12 39 31.5t59.5 37t84 29.5t114.5 12q76 0 158 -28.5t149.5 -91t111.5 -161t44 -239.5q0 -98 -27.5 -194.5t-87 -172t-152 -121.5t-221.5 -46q-117 0 -177 27.5t-95 49.5v-522h-360zM473 305q41 -23 83 -44t99 -21q84 0 141.5 69.5t57.5 198.5 q0 74 -18.5 123t-47 79.5t-64.5 43t-69 12.5q-39 0 -68.5 -8t-52 -19.5t-38 -24t-23.5 -20.5v-389z" />
<glyph unicode="q" horiz-adv-x="1304" d="M72 516q0 141 43 239.5t110.5 161t149.5 91t160 28.5q66 0 114.5 -12t83.5 -29.5t58.5 -37t39.5 -31.5v92h361v-1481h-361v522q-35 -23 -95 -50t-177 -27q-129 0 -221 46t-151.5 121.5t-87 172t-27.5 194.5zM451 508q0 -129 57 -198.5t141 -69.5q57 0 99.5 21.5 t82.5 43.5v389q-10 8 -24 20.5t-36.5 24t-52.5 19.5t-69 8q-35 0 -69.5 -12.5t-63.5 -43t-47 -79.5t-18 -123z" />
<glyph unicode="r" horiz-adv-x="1009" d="M113 0v1018h360v-246q12 33 40 79t69 87t94 69.5t119 28.5q72 0 120 -22.5t95 -50.5l-133 -361q-41 41 -80 59.5t-86 18.5q-35 0 -67 -10.5t-60.5 -37t-56 -73.5t-54.5 -121v-438h-360z" />
<glyph unicode="s" horiz-adv-x="991" d="M94 731q0 53 24.5 107.5t76 98.5t129 71.5t184.5 27.5q8 0 42 -1t82 -9t107.5 -24.5t118.5 -47.5v-249q-16 8 -44 25.5t-65.5 33.5t-85 29.5t-100.5 13.5q-35 0 -56.5 -8t-32.5 -20.5t-15 -25t-4 -18.5q0 -10 3 -20t16 -22.5t39 -26t73 -31.5q92 -35 153.5 -71 t100.5 -75.5t55 -87t16 -104.5q0 -66 -23.5 -123t-73.5 -100t-127 -67.5t-183 -24.5q-127 0 -221.5 25.5t-171.5 53.5v256q55 -33 133 -69.5t172 -36.5q49 0 92 15.5t43 58.5q0 18 -11.5 34.5t-37 33t-66.5 35t-102 44.5q-41 18 -83 45t-77 64t-57.5 84t-22.5 106z" />
<glyph unicode="t" horiz-adv-x="960" d="M23 768v63l483 492h41v-305h344v-250h-344v-326q0 -33 2 -63.5t16.5 -55t43 -40t83.5 -15.5q59 0 112.5 20.5t113.5 51.5v-281q-25 -12 -63 -25.5t-84 -25.5t-96 -19t-100 -7q-203 0 -296 98t-93 282v406h-163z" />
<glyph unicode="u" horiz-adv-x="1302" d="M100 420v598h361v-529q0 -25 1 -63.5t14 -75.5t43 -63.5t89 -26.5q45 0 82 19.5t63.5 46t45 53.5t28.5 41v598h361v-1018h-361v145q-72 -78 -154.5 -120.5t-205.5 -42.5q-141 0 -217 55t-108.5 129t-37 146.5t-4.5 107.5z" />
<glyph unicode="v" horiz-adv-x="1193" d="M6 1018h387l211 -533l234 533h350l-463 -1018h-266z" />
<glyph unicode="w" horiz-adv-x="1748" d="M14 1018h365l186 -514l199 514h229l201 -514l180 514h361l-402 -1018h-227l-227 555l-226 -555h-227z" />
<glyph unicode="x" horiz-adv-x="1259" d="M10 1018h443l188 -277l190 277h394l-385 -483l409 -535h-444l-197 289l-196 -289h-394l394 500z" />
<glyph unicode="y" horiz-adv-x="1193" d="M27 1018h387l207 -506l235 506h350l-692 -1481h-364l280 596z" />
<glyph unicode="z" horiz-adv-x="1130" d="M29 0v33l487 719h-446v266h1013v-33l-487 -719h477v-266h-1044z" />
<glyph unicode="{" horiz-adv-x="788" d="M43 319v285q55 0 95 14.5t64.5 49t36 91t11.5 140.5q0 119 6 213t45 158.5t124 99.5t241 35h92v-279q-61 0 -100.5 -6t-61 -26.5t-29.5 -61.5t-8 -108q0 -88 -6 -163t-25.5 -134.5t-55.5 -101.5t-93 -64q57 -29 93 -61.5t55.5 -80t25.5 -113t6 -161.5q0 -82 5 -131 t24.5 -74.5t59.5 -34t110 -8.5v-278h-92q-150 0 -234 30.5t-125 90t-50 145.5t-9 197q0 98 -10.5 163.5t-34 103.5t-62.5 54t-98 16z" />
<glyph unicode="|" horiz-adv-x="598" d="M176 -481v1886h248v-1886h-248z" />
<glyph unicode="}" horiz-adv-x="788" d="M31 -203q61 0 100 6.5t60.5 26.5t29.5 61t8 109q0 88 6.5 163t26 134t54 101t94.5 65q-57 29 -93 61.5t-55.5 79.5t-26 112.5t-6.5 162.5q0 82 -5 130t-25.5 74.5t-59.5 34.5t-108 8v279h92q150 0 233.5 -31t124.5 -90t50.5 -145t9.5 -197q0 -98 10 -163.5t33.5 -103.5 t62.5 -54.5t98 -16.5v-285q-55 0 -95 -14t-64.5 -49t-35.5 -91t-11 -140q0 -119 -6.5 -213.5t-45 -159t-123.5 -99t-241 -34.5h-92v278z" />
<glyph unicode="~" horiz-adv-x="1366" d="M121 500v256q14 12 45 36.5t73 47t95 40t115 17.5q14 0 34.5 -1t51 -9t74.5 -25.5t110 -48.5q82 -41 131 -57.5t98 -16.5q55 0 103.5 19.5t87.5 44t66.5 49.5t39.5 35v-254q-96 -84 -176 -112.5t-143 -28.5q-29 0 -55.5 3t-59.5 13t-76 28.5t-104 49.5q-88 43 -130 53 t-71 10q-57 0 -137 -30.5t-172 -118.5z" />
<glyph unicode="&#xa1;" horiz-adv-x="618" d="M94 -174q0 63 13.5 148t33 170t43 159t43.5 115q12 25 28.5 36t51.5 13q35 -2 51.5 -13.5t28.5 -35.5q20 -41 44 -115t44.5 -159t34.5 -170t14 -148q0 -88 -21.5 -147.5t-54 -94.5t-70.5 -50t-71 -15t-70.5 15t-69.5 50t-52.5 94.5t-20.5 147.5zM94 727q0 45 16.5 84 t45 67.5t67.5 46t84 17.5q43 0 83 -17.5t69.5 -46t47 -67.5t17.5 -84t-17.5 -84t-47 -68.5t-69.5 -46t-83 -16.5q-45 0 -84 16.5t-67.5 46t-45 68.5t-16.5 84z" />
<glyph unicode="&#xa2;" horiz-adv-x="1067" d="M88 500q0 74 23.5 166t86 175t174 139t287.5 56q55 0 90 -3t52 -7l98 309h121l-107 -334q18 -4 37 -11t35 -13v-272q-35 16 -77 30.5t-74 18.5l-158 -496q45 -6 93 -1t92 17.5t81 26.5t59 25v-277q-68 -25 -167 -50.5t-244 -12.5l-115 -369h-121l121 385q-98 27 -172 77 t-121 116.5t-70.5 144.5t-23.5 160zM440 500q0 -53 14.5 -91t34 -64t41 -41t35.5 -23l156 487q-70 0 -122 -23.5t-88 -62.5t-53.5 -86t-17.5 -96z" />
<glyph unicode="&#xa3;" horiz-adv-x="1173" d="M80 -18q16 88 27.5 148t27.5 130t29.5 135.5t36.5 132.5l10 33h-123v264h199q31 80 54.5 137.5t46 102.5t47 83t59.5 77q90 102 187 141t191 39q41 0 65 -5t46 -11l150 -312q-31 10 -68 20.5t-88 10.5q-72 0 -120 -26.5t-81 -67.5t-54.5 -91.5t-39.5 -97.5h158v-264h-242 l-66 -252q23 6 38.5 9.5t27.5 5.5t25.5 3t29.5 1q41 0 73 -3t69 -14q51 -12 76.5 -15t64.5 -3q59 0 86 10t51 27v-320q-27 -10 -62.5 -19t-109.5 -9q-59 0 -115.5 5t-111.5 13q-31 4 -54.5 7t-44 5t-44 3t-54.5 1q-66 0 -117 -3t-97 -7t-90 -10t-93 -14z" />
<glyph unicode="&#xa4;" horiz-adv-x="1429" d="M176 317l133 132q-20 35 -43.5 95t-23.5 150t24.5 150.5t42.5 93.5l-133 131l162 164l133 -133q31 18 91.5 42.5t152.5 24.5q90 0 151.5 -24.5t91.5 -42.5l134 133l161 -164l-133 -131q18 -31 43 -92.5t25 -151.5q0 -92 -24.5 -153.5t-43.5 -91.5l133 -132l-161 -161 l-134 131q-37 -20 -95 -43t-148 -23q-88 0 -145.5 22.5t-98.5 43.5l-133 -131zM467 694q0 -53 19.5 -98t53 -78t79 -52.5t96.5 -19.5t96 19.5t79 52.5t53.5 78t19.5 98q0 51 -19.5 97.5t-53.5 79t-79 52t-96 19.5t-96.5 -19.5t-79 -52t-53 -79t-19.5 -97.5z" />
<glyph unicode="&#xa5;" horiz-adv-x="1538" d="M12 1386h506l283 -436l282 436h443l-426 -587h362v-172h-481v-201h481v-172h-481v-254h-416v254h-489v172h489v201h-489v172h364z" />
<glyph unicode="&#xa6;" horiz-adv-x="598" d="M176 334h248v-815h-248v815zM176 590v815h248v-815h-248z" />
<glyph unicode="&#xa7;" horiz-adv-x="1259" d="M94 526q0 59 16.5 110.5t41 94.5t55.5 81t59 71q-31 35 -58.5 79t-27.5 121q0 47 20.5 103.5t73 104.5t142.5 81t227 33q109 0 187.5 -20.5t131 -53.5t78 -77t25.5 -89q0 -23 -7 -50.5t-25.5 -51t-48.5 -39.5t-75 -16q-10 0 -28.5 2t-39 11t-43 29.5t-40.5 55.5 q-31 57 -56.5 80.5t-78.5 23.5t-92 -25.5t-39 -70.5q0 -27 12 -48.5t43 -44t83 -51t130 -69.5q94 -49 170 -99t128 -107.5t79.5 -124t27.5 -152.5q0 -74 -19.5 -132.5t-46 -103.5t-55 -75.5t-49.5 -49.5q27 -35 56.5 -85t29.5 -138q0 -98 -47 -160.5t-116.5 -96.5 t-149.5 -46t-143 -12q-90 0 -168 18.5t-136.5 50t-92 75.5t-33.5 97q0 49 35.5 92.5t111.5 43.5q35 0 61.5 -10.5t46 -26t33 -32.5t21.5 -30q23 -35 48.5 -59.5t84.5 -24.5q16 0 38.5 4t44 16.5t36 32t14.5 50.5q0 23 -6 42t-36 43.5t-90 61.5t-167 94q-117 61 -190.5 121 t-114.5 118t-56.5 115.5t-15.5 114.5zM360 614q0 -31 15.5 -61.5t40 -59t55.5 -55t61 -49.5q16 -12 61.5 -39.5t95.5 -59.5t96 -59.5t65 -40.5q16 20 38.5 55.5t22.5 82.5q0 53 -37.5 103t-102 99.5t-153 99.5t-186.5 105q-20 -14 -46 -42t-26 -79z" />
<glyph unicode="&#xa8;" horiz-adv-x="681" d="M-51 1290q0 55 39 96t98 41t98 -40.5t39 -96.5q0 -57 -39 -97t-98 -40t-98 41t-39 96zM459 1290q0 55 39 96t98 41t98 -40.5t39 -96.5q0 -57 -39 -97t-98 -40t-98 41t-39 96z" />
<glyph unicode="&#xa9;" horiz-adv-x="1642" d="M57 643q0 160 60.5 299t165 241.5t244 162t294.5 59.5q156 0 295 -59.5t243.5 -162t165 -241.5t60.5 -299q0 -158 -60.5 -297t-164 -242.5t-242.5 -164t-297 -60.5t-297 60.5t-242.5 164t-164 242.5t-60.5 297zM205 643q0 -127 48 -239.5t132 -196.5t196.5 -132 t239.5 -48q129 0 241 48t195.5 132t132 196.5t48.5 239.5q0 129 -49.5 240.5t-133.5 194.5t-195.5 131t-238.5 48t-238.5 -48t-195.5 -131t-133 -194.5t-49 -240.5zM410 645q0 94 31.5 173t88 135.5t133 87t164.5 30.5q59 0 119 -15.5t110 -49t87 -86t53 -125.5l-197 -31 q-4 12 -12 38.5t-27.5 53.5t-53.5 47.5t-89 20.5q-49 0 -84 -21.5t-57.5 -58.5t-32.5 -87t-10 -108q0 -27 3 -76t20.5 -96t55.5 -83t107 -36q45 0 76 18.5t52.5 46.5t33.5 61.5t18 64.5l205 -49q-8 -27 -27.5 -75t-61.5 -95t-111.5 -82t-178.5 -35q-102 0 -180 35t-130 95 t-78.5 138t-26.5 164z" />
<glyph unicode="&#xaa;" horiz-adv-x="768" d="M39 911q0 74 39 119t96 68q53 20 124 36.5t132 30.5q0 41 -27.5 57.5t-66.5 16.5q-25 0 -51.5 -3t-60.5 -15.5t-72.5 -37t-88.5 -67.5v201q78 41 156 64.5t168 23.5q102 0 164.5 -24.5t97.5 -65.5q29 -33 33 -70t4 -65v-217q0 -35 5 -43.5t16 -8.5q23 0 71 21v-141 q-18 -8 -35.5 -16.5t-39 -15.5t-50 -11.5t-67.5 -4.5q-53 0 -83 18.5t-52 41.5q-37 -23 -82 -41.5t-127 -18.5q-59 0 -98.5 16.5t-63 41t-32.5 54t-9 56.5zM293 938q0 -27 16.5 -38t34.5 -11q23 0 42.5 10t41.5 27v116q-80 -29 -107.5 -52t-27.5 -52z" />
<glyph unicode="&#xab;" horiz-adv-x="1304" d="M31 498l315 493h334l-315 -493l315 -498h-334zM610 498l316 493h334l-314 -493l314 -498h-334z" />
<glyph unicode="&#xac;" horiz-adv-x="1366" d="M121 809v248h1124v-731h-248v483h-876z" />
<glyph unicode="&#xad;" horiz-adv-x="1003" d="M174 348v334h655v-334h-655z" />
<glyph unicode="&#xae;" horiz-adv-x="1642" d="M57 643q0 160 60.5 299t165 241.5t244 162t294.5 59.5q156 0 295 -59.5t243.5 -162t165 -241.5t60.5 -299q0 -158 -60.5 -297t-164 -242.5t-242.5 -164t-297 -60.5t-297 60.5t-242.5 164t-164 242.5t-60.5 297zM205 643q0 -127 48 -239.5t132 -196.5t196.5 -132 t239.5 -48q129 0 241 48t195.5 132t132 196.5t48.5 239.5q0 129 -49.5 240.5t-133.5 194.5t-195.5 131t-238.5 48t-238.5 -48t-195.5 -131t-133 -194.5t-49 -240.5zM475 233v818h365q61 0 115.5 -12.5t94.5 -40t62.5 -71.5t22.5 -108q0 -61 -24 -103t-58.5 -67.5t-72.5 -38 t-67 -18.5q37 -18 64 -40t48.5 -48.5t38.5 -59t40 -71.5l76 -140h-240q-68 139 -115 217t-75 95q-12 6 -33 11t-39 3v-326h-203zM678 705h88q72 0 116 21.5t44 80.5q0 53 -43 77.5t-109 24.5h-96v-204z" />
<glyph unicode="&#xaf;" horiz-adv-x="681" d="M-45 1176v245h772v-245h-772z" />
<glyph unicode="&#x2c9;" horiz-adv-x="681" d="M-45 1176v245h772v-245h-772z" />
<glyph unicode="&#xb0;" horiz-adv-x="817" d="M123 1120q0 59 22.5 111.5t61.5 90.5t90 60.5t111 22.5q59 0 111 -22.5t91 -60.5t61.5 -90t22.5 -112q0 -59 -22.5 -111.5t-61.5 -91t-91 -61t-111 -22.5t-110.5 22.5t-90.5 61t-61.5 91t-22.5 111.5zM307 1118q0 -41 30 -70.5t71 -29.5t71.5 29.5t30.5 70.5 q0 43 -30.5 73t-71.5 30t-71 -30t-30 -73z" />
<glyph unicode="&#xb1;" horiz-adv-x="1366" d="M121 0v248h1124v-248h-1124zM121 807v248h438v438h248v-438h438v-248h-438v-438h-248v438h-438z" />
<glyph unicode="&#xb2;" horiz-adv-x="724" d="M41 682v35q49 41 95 84t91 88q66 66 111 124t45 120q0 41 -27.5 65.5t-76.5 24.5q-37 0 -71 -12.5t-62.5 -30t-49 -34t-28.5 -24.5v201q51 29 117.5 55.5t158.5 26.5q74 0 127 -19.5t87 -51t50.5 -71.5t16.5 -83q0 -88 -50.5 -157t-132.5 -157h244v-184h-645z" />
<glyph unicode="&#xb3;" horiz-adv-x="724" d="M78 725v190q51 -39 97 -59t104 -20q41 0 73.5 16t32.5 49q0 25 -15.5 40t-39 23.5t-53 11.5t-58.5 3v139q25 0 52.5 1t49 7.5t36 19.5t14.5 38q0 23 -23.5 44t-73.5 21q-16 0 -61 -8t-113 -49v166q27 10 95.5 28.5t140.5 18.5q74 0 127 -18.5t89 -47t52.5 -63.5t16.5 -68 q0 -41 -21.5 -79.5t-71.5 -73.5q106 -61 107 -170q0 -51 -23.5 -91t-63.5 -67t-93.5 -41t-112.5 -14q-37 0 -75 5t-73.5 13t-65.5 17.5t-50 17.5z" />
<glyph unicode="&#xb4;" horiz-adv-x="681" d="M166 1153l172 317h389l-369 -317h-192z" />
<glyph unicode="&#xb5;" horiz-adv-x="1302" d="M100 -463v1481h361v-533q0 -29 2 -67.5t15.5 -73.5t44 -59.5t85.5 -24.5q41 0 74 15.5t59.5 39t48 50t37.5 51.5v602h361v-1018h-361v55q-23 -23 -64.5 -48t-129.5 -25q-68 0 -103.5 14t-68.5 35v-494h-361z" />
<glyph unicode="&#x3bc;" horiz-adv-x="1302" d="M100 -463v1481h361v-533q0 -29 2 -67.5t15.5 -73.5t44 -59.5t85.5 -24.5q41 0 74 15.5t59.5 39t48 50t37.5 51.5v602h361v-1018h-361v55q-23 -23 -64.5 -48t-129.5 -25q-68 0 -103.5 14t-68.5 35v-494h-361z" />
<glyph unicode="&#xb6;" horiz-adv-x="1193" d="M43 909q0 141 57.5 243.5t143.5 156.5q88 55 211 66t282 11h432v-139h-133v-1728h-139v1728h-156v-1728h-139v907q-16 0 -50 2t-77 9t-91 19.5t-91 32.5q-61 31 -108.5 76t-79 100.5t-47 116.5t-15.5 127z" />
<glyph unicode="&#xb7;" horiz-adv-x="575" d="M74 694q0 45 17.5 84t47 69t69.5 46t83 16q45 0 84 -17.5t67.5 -46t45 -67.5t16.5 -84t-16.5 -84t-45 -68.5t-67.5 -46t-84 -16.5q-43 0 -83 16.5t-69.5 46t-47 68.5t-17.5 84z" />
<glyph unicode="&#x2219;" horiz-adv-x="575" d="M74 694q0 45 17.5 84t47 69t69.5 46t83 16q45 0 84 -17.5t67.5 -46t45 -67.5t16.5 -84t-16.5 -84t-45 -68.5t-67.5 -46t-84 -16.5q-43 0 -83 16.5t-69.5 46t-47 68.5t-17.5 84z" />
<glyph unicode="&#xb8;" horiz-adv-x="681" d="M47 -293q37 0 73 3t63.5 11.5t45 23.5t17.5 42q0 31 -21.5 45t-74.5 18l124 170h168l-39 -79q82 -20 126 -64.5t44 -107.5q0 -39 -17 -75t-57 -63.5t-102.5 -44t-152.5 -16.5h-197v137z" />
<glyph unicode="&#xb9;" horiz-adv-x="724" d="M238 682v704h249v-704h-249z" />
<glyph unicode="&#xba;" horiz-adv-x="831" d="M25 1073q0 70 24.5 130.5t73.5 105.5t121.5 70.5t167.5 25.5q94 0 167.5 -25.5t124 -70.5t77 -105.5t26.5 -130.5t-26.5 -130t-77 -104t-124 -70t-167.5 -26t-167 26t-122 70t-73.5 104t-24.5 130zM295 1073q0 -72 27.5 -107.5t89.5 -35.5q125 0 125 143q0 145 -125 146 q-61 0 -89 -37t-28 -109z" />
<glyph unicode="&#xbb;" horiz-adv-x="1304" d="M45 0l313 498l-313 493h334l315 -493l-315 -498h-334zM625 0l315 498l-315 493h333l316 -493l-316 -498h-333z" />
<glyph unicode="&#xbc;" horiz-adv-x="1662" d="M238 682v704h249v-704h-249zM250 -49l948 1454h207l-948 -1454h-207zM956 147v152l385 414h189v-420h96v-146h-96v-147h-223v147h-351zM1128 293h179v190z" />
<glyph unicode="&#xbd;" horiz-adv-x="1662" d="M205 -49l948 1454h207l-948 -1454h-207zM238 682v704h249v-704h-249zM979 0v35q49 41 95 84t91 88q66 66 111 124t45 120q0 33 -22.5 61.5t-81.5 28.5q-31 0 -63 -10.5t-59.5 -26t-51 -32.5t-37.5 -32v201q53 29 119.5 55.5t156.5 26.5q88 0 143.5 -24.5t86 -60.5t41 -75 t10.5 -65q0 -88 -50.5 -157t-132.5 -157h244v-184h-645z" />
<glyph unicode="&#xbe;" horiz-adv-x="1662" d="M78 725v190q51 -39 97 -59t104 -20q41 0 73.5 16t32.5 49q0 25 -15.5 40t-39 23.5t-53 11.5t-58.5 3v139q25 0 52.5 1t49 7.5t36 19.5t14.5 38q0 23 -23.5 44t-73.5 21q-16 0 -61 -8t-113 -49v166q27 10 95.5 28.5t140.5 18.5q74 0 127 -18.5t89 -47t52.5 -63.5t16.5 -68 q0 -41 -21.5 -79.5t-71.5 -73.5q106 -61 107 -170q0 -51 -23.5 -91t-63.5 -67t-93.5 -41t-112.5 -14q-37 0 -75 5t-73.5 13t-65.5 17.5t-50 17.5zM266 -49l948 1454h207l-948 -1454h-207zM956 147v152l385 414h189v-420h96v-146h-96v-147h-223v147h-351zM1128 293h179v190z " />
<glyph unicode="&#xbf;" horiz-adv-x="788" d="M63 -190q0 45 7.5 82.5t27 73.5t56 76t96.5 93q33 31 60.5 68t46 74.5t28.5 70.5t10 55q0 68 76 68q31 0 49.5 -12.5t24.5 -28.5q6 -14 9 -36l6 -43q3 -22 4 -41t1 -31q0 -31 -5 -63t-12 -57.5t-13.5 -43t-8.5 -23.5q-8 -20 -20 -44.5t-23.5 -51.5t-19.5 -50.5t-8 -41.5 q0 -12 4 -29.5t17 -34t38 -28t66 -11.5t67.5 8.5t50.5 18.5h17l-94 -279q-37 -10 -82 -20t-109 -10q-96 0 -165.5 26.5t-115 67.5t-66 93.5t-20.5 103.5zM252 727q0 45 16.5 84t45 67.5t67.5 46t84 17.5q43 0 83 -17.5t69.5 -46t47 -67.5t17.5 -84t-17.5 -84t-47 -68.5 t-69.5 -46t-83 -16.5q-45 0 -84 16.5t-67.5 46t-45 68.5t-16.5 84z" />
<glyph unicode="&#xc0;" horiz-adv-x="1705" d="M10 0l613 1386h462l611 -1386h-428l-113 281h-602l-115 -281h-428zM651 522h408l-203 506zM512 1798h389l172 -317h-192z" />
<glyph unicode="&#xc1;" horiz-adv-x="1705" d="M10 0l613 1386h462l611 -1386h-428l-113 281h-602l-115 -281h-428zM651 522h408l-203 506zM678 1481l172 317h389l-369 -317h-192z" />
<glyph unicode="&#xc2;" horiz-adv-x="1705" d="M10 0l613 1386h462l611 -1386h-428l-113 281h-602l-115 -281h-428zM651 522h408l-203 506zM457 1481l182 346h428l182 -346h-215l-180 184l-182 -184h-215z" />
<glyph unicode="&#xc3;" horiz-adv-x="1705" d="M10 0l613 1386h462l611 -1386h-428l-113 281h-602l-115 -281h-428zM651 522h408l-203 506zM457 1481q0 86 22.5 147.5t57 99.5t75.5 55.5t78 17.5t82 -13.5t92 -29.5q45 -16 84 -31t62 -15q41 0 59 30t18 59h162q0 -156 -64.5 -238t-170.5 -82q-39 0 -84 13.5t-88 29.5 t-81 29.5t-63 13.5q-45 0 -61 -28.5t-21 -57.5h-159z" />
<glyph unicode="&#xc4;" horiz-adv-x="1705" d="M10 0l613 1386h462l611 -1386h-428l-113 281h-602l-115 -281h-428zM651 522h408l-203 506zM461 1618q0 55 39 96t98 41t98 -40.5t39 -96.5q0 -57 -39 -97t-98 -40t-98 41t-39 96zM971 1618q0 55 39 96t98 41t98 -40.5t39 -96.5q0 -57 -39 -97t-98 -40t-98 41t-39 96z" />
<glyph unicode="&#xc5;" horiz-adv-x="1705" d="M10 0l613 1386h462l611 -1386h-428l-113 281h-602l-115 -281h-428zM651 522h408l-203 506zM647 1686q0 43 15.5 80t43 64.5t65.5 44t81 16.5t81 -16.5t65.5 -44t44 -64.5t16.5 -80t-16.5 -81t-44 -65.5t-65.5 -44t-81 -16.5t-81 16.5t-65.5 44t-43 65.5t-15.5 81z M745 1686q0 -45 31 -77t76 -32t77 32t32 77t-32 75.5t-77 30.5t-76 -30.5t-31 -75.5z" />
<glyph unicode="&#xc6;" horiz-adv-x="2279" d="M10 0l877 1386h1272v-278h-605v-254h570v-279h-570v-296h619v-279h-1036v516h-400l-303 -516h-424zM881 756h256v436z" />
<glyph unicode="&#xc7;" horiz-adv-x="1521" d="M84 694q0 178 62.5 311.5t170 222.5t251 133t306.5 44q88 0 167 -11.5t146.5 -26.5t124 -33.5t97.5 -33.5v-368q-29 18 -73 43.5t-99 49.5t-122.5 40t-145.5 16q-84 0 -166 -24.5t-147.5 -73.5t-105.5 -123t-40 -172q0 -84 35 -154.5t95 -121t139 -79t167 -28.5 q84 0 156 16.5t131 39t105 49t77 45.5v-351q-72 -37 -140.5 -59t-130 -35.5t-114.5 -18.5t-94 -7l-21 -43q55 -10 89 -33t52.5 -48.5t24.5 -50t6 -40.5q0 -72 -59 -125.5t-176 -67.5q-23 -2 -41 -4t-48 -2h-77h-125v137q33 0 68 1t63.5 9.5t47 24.5t18.5 45q0 41 -32 50 t-64 13l100 138q-201 20 -331 93t-208 174t-108.5 217t-30.5 222z" />
<glyph unicode="&#xc8;" horiz-adv-x="1325" d="M174 0v1386h1028v-278h-610v-254h582v-279h-582v-296h627v-279h-1045zM352 1798h389l172 -317h-192z" />
<glyph unicode="&#xc9;" horiz-adv-x="1325" d="M174 0v1386h1028v-278h-610v-254h582v-279h-582v-296h627v-279h-1045zM518 1481l172 317h389l-369 -317h-192z" />
<glyph unicode="&#xca;" horiz-adv-x="1325" d="M174 0v1386h1028v-278h-610v-254h582v-279h-582v-296h627v-279h-1045zM297 1481l182 346h428l182 -346h-215l-180 184l-182 -184h-215z" />
<glyph unicode="&#xcb;" horiz-adv-x="1325" d="M174 0v1386h1028v-278h-610v-254h582v-279h-582v-296h627v-279h-1045zM301 1618q0 55 39 96t98 41t98 -40.5t39 -96.5q0 -57 -39 -97t-98 -40t-98 41t-39 96zM811 1618q0 55 39 96t98 41t98 -40.5t39 -96.5q0 -57 -39 -97t-98 -40t-98 41t-39 96z" />
<glyph unicode="&#xcc;" horiz-adv-x="770" d="M176 0v1386h418v-1386h-418zM45 1798h389l172 -317h-192z" />
<glyph unicode="&#xcd;" horiz-adv-x="770" d="M176 0v1386h418v-1386h-418zM211 1481l172 317h389l-369 -317h-192z" />
<glyph unicode="&#xce;" horiz-adv-x="770" d="M176 0v1386h418v-1386h-418zM-10 1481l182 346h428l182 -346h-215l-180 184l-182 -184h-215z" />
<glyph unicode="&#xcf;" horiz-adv-x="770" d="M176 0v1386h418v-1386h-418zM-6 1618q0 55 39 96t98 41t98 -40.5t39 -96.5q0 -57 -39 -97t-98 -40t-98 41t-39 96zM504 1618q0 55 39 96t98 41t98 -40.5t39 -96.5q0 -57 -39 -97t-98 -40t-98 41t-39 96z" />
<glyph unicode="&#xd0;" horiz-adv-x="1683" d="M20 586v215h154v585h576q131 0 227 -15t169 -39.5t123 -55.5t89 -62q98 -80 169.5 -218t71.5 -328q0 -123 -27.5 -214.5t-67.5 -157t-85 -109.5t-80 -70q-59 -47 -129.5 -70.5t-134 -34t-112 -11.5t-62.5 -1h-727v586h-154zM592 287h178q55 0 126 10t132.5 51t103.5 120 t42 218q0 137 -42 221t-103.5 128t-132.5 58.5t-126 14.5h-178v-307h285v-215h-285v-299z" />
<glyph unicode="&#xd1;" horiz-adv-x="1853" d="M174 0v1386h371l717 -768v768h417v-1386h-372l-719 772v-772h-414zM531 1481q0 86 22.5 147.5t57 99.5t75.5 55.5t78 17.5t82 -13.5t92 -29.5q45 -16 84 -31t62 -15q41 0 59 30t18 59h162q0 -156 -64.5 -238t-170.5 -82q-39 0 -84 13.5t-88 29.5t-81 29.5t-63 13.5 q-45 0 -61 -28.5t-21 -57.5h-159z" />
<glyph unicode="&#xd2;" horiz-adv-x="1742" d="M84 694q0 135 46 262t143.5 227.5t246 161t350.5 60.5q199 0 346.5 -58.5t246 -156.5t146.5 -226t48 -270q0 -143 -49 -272t-147.5 -227.5t-246 -155.5t-344.5 -57q-203 0 -351 61t-245.5 160.5t-143.5 227.5t-46 263zM510 694q0 -78 24.5 -143.5t70.5 -112.5 t112.5 -73.5t152.5 -26.5t154 26.5t114 73.5t69.5 112.5t23.5 143.5q0 76 -23.5 141.5t-69.5 112.5t-114 74t-154 27q-172 0 -266 -98.5t-94 -256.5zM530 1798h389l172 -317h-192z" />
<glyph unicode="&#xd3;" horiz-adv-x="1742" d="M84 694q0 135 46 262t143.5 227.5t246 161t350.5 60.5q199 0 346.5 -58.5t246 -156.5t146.5 -226t48 -270q0 -143 -49 -272t-147.5 -227.5t-246 -155.5t-344.5 -57q-203 0 -351 61t-245.5 160.5t-143.5 227.5t-46 263zM510 694q0 -78 24.5 -143.5t70.5 -112.5 t112.5 -73.5t152.5 -26.5t154 26.5t114 73.5t69.5 112.5t23.5 143.5q0 76 -23.5 141.5t-69.5 112.5t-114 74t-154 27q-172 0 -266 -98.5t-94 -256.5zM696 1481l172 317h389l-369 -317h-192z" />
<glyph unicode="&#xd4;" horiz-adv-x="1742" d="M84 694q0 135 46 262t143.5 227.5t246 161t350.5 60.5q199 0 346.5 -58.5t246 -156.5t146.5 -226t48 -270q0 -143 -49 -272t-147.5 -227.5t-246 -155.5t-344.5 -57q-203 0 -351 61t-245.5 160.5t-143.5 227.5t-46 263zM510 694q0 -78 24.5 -143.5t70.5 -112.5 t112.5 -73.5t152.5 -26.5t154 26.5t114 73.5t69.5 112.5t23.5 143.5q0 76 -23.5 141.5t-69.5 112.5t-114 74t-154 27q-172 0 -266 -98.5t-94 -256.5zM475 1481l182 346h428l182 -346h-215l-180 184l-182 -184h-215z" />
<glyph unicode="&#xd5;" horiz-adv-x="1742" d="M84 694q0 135 46 262t143.5 227.5t246 161t350.5 60.5q199 0 346.5 -58.5t246 -156.5t146.5 -226t48 -270q0 -143 -49 -272t-147.5 -227.5t-246 -155.5t-344.5 -57q-203 0 -351 61t-245.5 160.5t-143.5 227.5t-46 263zM510 694q0 -78 24.5 -143.5t70.5 -112.5 t112.5 -73.5t152.5 -26.5t154 26.5t114 73.5t69.5 112.5t23.5 143.5q0 76 -23.5 141.5t-69.5 112.5t-114 74t-154 27q-172 0 -266 -98.5t-94 -256.5zM475 1481q0 86 22.5 147.5t57 99.5t75.5 55.5t78 17.5t82 -13.5t92 -29.5q45 -16 84 -31t62 -15q41 0 59 30t18 59h162 q0 -156 -64.5 -238t-170.5 -82q-39 0 -84 13.5t-88 29.5t-81 29.5t-63 13.5q-45 0 -61 -28.5t-21 -57.5h-159z" />
<glyph unicode="&#xd6;" horiz-adv-x="1742" d="M84 694q0 135 46 262t143.5 227.5t246 161t350.5 60.5q199 0 346.5 -58.5t246 -156.5t146.5 -226t48 -270q0 -143 -49 -272t-147.5 -227.5t-246 -155.5t-344.5 -57q-203 0 -351 61t-245.5 160.5t-143.5 227.5t-46 263zM510 694q0 -78 24.5 -143.5t70.5 -112.5 t112.5 -73.5t152.5 -26.5t154 26.5t114 73.5t69.5 112.5t23.5 143.5q0 76 -23.5 141.5t-69.5 112.5t-114 74t-154 27q-172 0 -266 -98.5t-94 -256.5zM479 1618q0 55 39 96t98 41t98 -40.5t39 -96.5q0 -57 -39 -97t-98 -40t-98 41t-39 96zM989 1618q0 55 39 96t98 41 t98 -40.5t39 -96.5q0 -57 -39 -97t-98 -40t-98 41t-39 96z" />
<glyph unicode="&#xd7;" horiz-adv-x="1366" d="M147 334l361 360l-361 359l177 176l360 -359l358 359l177 -176l-361 -359l361 -360l-177 -174l-358 358l-360 -358z" />
<glyph unicode="&#xd8;" horiz-adv-x="1742" d="M84 694q0 135 46 262t143.5 227.5t246 161t350.5 60.5q111 0 195 -16.5t143.5 -38t98.5 -45t61 -37.5l164 155l117 -118l-156 -150q49 -55 81 -115.5t50 -120t25.5 -118t7.5 -107.5q0 -135 -46 -263t-143.5 -227.5t-246 -160.5t-351.5 -61q-49 0 -107 5t-119.5 18 t-124 37t-120.5 60l-188 -182l-117 121l176 168q-90 98 -138 214.5t-48 270.5zM510 696q0 -8 1 -28.5t6 -49t16.5 -62.5t29.5 -64l520 501q-47 31 -101 43.5t-112 12.5q-90 0 -156.5 -28t-112.5 -76t-68.5 -112.5t-22.5 -136.5zM686 379q47 -25 100.5 -33t85.5 -8 q86 0 153 26.5t113 74.5t69.5 112.5t23.5 140.5q0 53 -10.5 97.5t-26.5 78.5z" />
<glyph unicode="&#xd9;" horiz-adv-x="1771" d="M154 621v765h417v-657q0 -109 23.5 -184.5t65.5 -122.5t100.5 -69.5t126.5 -22.5t125 21.5t99 69.5t65.5 122.5t23.5 183.5v659h418v-765q0 -188 -70.5 -311.5t-179 -196t-236.5 -102t-245 -29.5q-78 0 -162 12t-166 42t-155.5 78t-129 118.5t-88 167t-32.5 221.5z M545 1798h389l172 -317h-192z" />
<glyph unicode="&#xda;" horiz-adv-x="1771" d="M154 621v765h417v-657q0 -109 23.5 -184.5t65.5 -122.5t100.5 -69.5t126.5 -22.5t125 21.5t99 69.5t65.5 122.5t23.5 183.5v659h418v-765q0 -188 -70.5 -311.5t-179 -196t-236.5 -102t-245 -29.5q-78 0 -162 12t-166 42t-155.5 78t-129 118.5t-88 167t-32.5 221.5z M711 1481l172 317h389l-369 -317h-192z" />
<glyph unicode="&#xdb;" horiz-adv-x="1771" d="M154 621v765h417v-657q0 -109 23.5 -184.5t65.5 -122.5t100.5 -69.5t126.5 -22.5t125 21.5t99 69.5t65.5 122.5t23.5 183.5v659h418v-765q0 -188 -70.5 -311.5t-179 -196t-236.5 -102t-245 -29.5q-78 0 -162 12t-166 42t-155.5 78t-129 118.5t-88 167t-32.5 221.5z M490 1481l182 346h428l182 -346h-215l-180 184l-182 -184h-215z" />
<glyph unicode="&#xdc;" horiz-adv-x="1771" d="M154 621v765h417v-657q0 -109 23.5 -184.5t65.5 -122.5t100.5 -69.5t126.5 -22.5t125 21.5t99 69.5t65.5 122.5t23.5 183.5v659h418v-765q0 -188 -70.5 -311.5t-179 -196t-236.5 -102t-245 -29.5q-78 0 -162 12t-166 42t-155.5 78t-129 118.5t-88 167t-32.5 221.5z M494 1618q0 55 39 96t98 41t98 -40.5t39 -96.5q0 -57 -39 -97t-98 -40t-98 41t-39 96zM1004 1618q0 55 39 96t98 41t98 -40.5t39 -96.5q0 -57 -39 -97t-98 -40t-98 41t-39 96z" />
<glyph unicode="&#xdd;" horiz-adv-x="1538" d="M12 1386h434l318 -436l319 436h443l-543 -751v-635h-418v627zM594 1481l172 317h389l-369 -317h-192z" />
<glyph unicode="&#xde;" horiz-adv-x="1431" d="M174 0v1386h418v-260h274q131 0 227.5 -36.5t159 -97t92 -139.5t29.5 -163t-29.5 -161.5t-92 -137t-159 -95.5t-227.5 -36h-274v-260h-418zM592 526h90q66 0 115 5.5t82.5 21.5t51 49t17.5 86t-18.5 87t-53 52.5t-84 25.5t-112.5 7h-88v-334z" />
<glyph unicode="&#xdf;" horiz-adv-x="1353" d="M150 0v905q0 55 2 103.5t9 89.5t21.5 75.5t40.5 67.5q25 31 65 59.5t97 52t133 38t174 14.5q145 0 241.5 -33t155 -83t83 -112.5t24.5 -119.5q0 -63 -19.5 -108.5t-46 -76t-55 -49t-47.5 -28.5q131 -57 186.5 -157.5t55.5 -225.5q0 -104 -37 -185.5t-96.5 -135.5 t-132 -81.5t-146.5 -27.5q-53 0 -99 8t-91 18v250q35 -2 75.5 -2t85.5 31q41 29 60.5 82t19.5 106q0 61 -17.5 101t-47 64t-70.5 34t-88 12v201q49 0 81 15.5t51.5 38t27.5 50t8 49.5q0 27 -10 54.5t-31.5 51t-53.5 38t-75 14.5q-96 0 -135 -58.5t-39 -152.5v-987h-360z" />
<glyph unicode="&#xe0;" horiz-adv-x="1169" d="M72 238q0 74 29.5 126t80.5 91t122 66.5t155 53.5q57 18 92 29.5t56.5 19t34.5 12.5t28 13q0 29 -4 56.5t-20.5 50t-48.5 37t-87 14.5q-66 0 -124 -16.5t-109.5 -43t-94.5 -60.5t-76 -66v276q102 72 225.5 105.5t254.5 33.5q227 0 335.5 -88t108.5 -233v-393 q0 -53 10.5 -82t38.5 -29q27 0 52.5 11t39.5 18v-189q-53 -23 -126.5 -46t-180.5 -23q-51 0 -82.5 11t-50 28.5t-28 36t-13.5 32.5q-20 -16 -48 -35.5t-64.5 -36t-87 -26.5t-115.5 -10q-90 0 -148.5 24.5t-93.5 62t-48 83t-13 86.5zM424 281q0 -55 31.5 -80t66.5 -25 q20 0 43 8.5t42.5 19.5t35.5 22.5t27 19.5v241q-53 -23 -98.5 -43t-78 -43.5t-51 -52t-18.5 -67.5zM244 1470h389l172 -317h-192z" />
<glyph unicode="&#xe1;" horiz-adv-x="1169" d="M72 238q0 74 29.5 126t80.5 91t122 66.5t155 53.5q57 18 92 29.5t56.5 19t34.5 12.5t28 13q0 29 -4 56.5t-20.5 50t-48.5 37t-87 14.5q-66 0 -124 -16.5t-109.5 -43t-94.5 -60.5t-76 -66v276q102 72 225.5 105.5t254.5 33.5q227 0 335.5 -88t108.5 -233v-393 q0 -53 10.5 -82t38.5 -29q27 0 52.5 11t39.5 18v-189q-53 -23 -126.5 -46t-180.5 -23q-51 0 -82.5 11t-50 28.5t-28 36t-13.5 32.5q-20 -16 -48 -35.5t-64.5 -36t-87 -26.5t-115.5 -10q-90 0 -148.5 24.5t-93.5 62t-48 83t-13 86.5zM424 281q0 -55 31.5 -80t66.5 -25 q20 0 43 8.5t42.5 19.5t35.5 22.5t27 19.5v241q-53 -23 -98.5 -43t-78 -43.5t-51 -52t-18.5 -67.5zM410 1153l172 317h389l-369 -317h-192z" />
<glyph unicode="&#xe2;" horiz-adv-x="1169" d="M72 238q0 74 29.5 126t80.5 91t122 66.5t155 53.5q57 18 92 29.5t56.5 19t34.5 12.5t28 13q0 29 -4 56.5t-20.5 50t-48.5 37t-87 14.5q-66 0 -124 -16.5t-109.5 -43t-94.5 -60.5t-76 -66v276q102 72 225.5 105.5t254.5 33.5q227 0 335.5 -88t108.5 -233v-393 q0 -53 10.5 -82t38.5 -29q27 0 52.5 11t39.5 18v-189q-53 -23 -126.5 -46t-180.5 -23q-51 0 -82.5 11t-50 28.5t-28 36t-13.5 32.5q-20 -16 -48 -35.5t-64.5 -36t-87 -26.5t-115.5 -10q-90 0 -148.5 24.5t-93.5 62t-48 83t-13 86.5zM424 281q0 -55 31.5 -80t66.5 -25 q20 0 43 8.5t42.5 19.5t35.5 22.5t27 19.5v241q-53 -23 -98.5 -43t-78 -43.5t-51 -52t-18.5 -67.5zM168 1153l182 346h428l182 -346h-215l-180 184l-182 -184h-215z" />
<glyph unicode="&#xe3;" horiz-adv-x="1169" d="M72 238q0 74 29.5 126t80.5 91t122 66.5t155 53.5q57 18 92 29.5t56.5 19t34.5 12.5t28 13q0 29 -4 56.5t-20.5 50t-48.5 37t-87 14.5q-66 0 -124 -16.5t-109.5 -43t-94.5 -60.5t-76 -66v276q102 72 225.5 105.5t254.5 33.5q227 0 335.5 -88t108.5 -233v-393 q0 -53 10.5 -82t38.5 -29q27 0 52.5 11t39.5 18v-189q-53 -23 -126.5 -46t-180.5 -23q-51 0 -82.5 11t-50 28.5t-28 36t-13.5 32.5q-20 -16 -48 -35.5t-64.5 -36t-87 -26.5t-115.5 -10q-90 0 -148.5 24.5t-93.5 62t-48 83t-13 86.5zM424 281q0 -55 31.5 -80t66.5 -25 q20 0 43 8.5t42.5 19.5t35.5 22.5t27 19.5v241q-53 -23 -98.5 -43t-78 -43.5t-51 -52t-18.5 -67.5zM189 1153q0 86 22.5 147.5t57 99.5t75.5 55.5t78 17.5t82 -13.5t92 -29.5q45 -16 84 -31t62 -15q41 0 59 30t18 59h162q0 -156 -64.5 -238t-170.5 -82q-39 0 -84 13.5 t-88 29.5t-81 29.5t-63 13.5q-45 0 -61 -28.5t-21 -57.5h-159z" />
<glyph unicode="&#xe4;" horiz-adv-x="1169" d="M72 238q0 74 29.5 126t80.5 91t122 66.5t155 53.5q57 18 92 29.5t56.5 19t34.5 12.5t28 13q0 29 -4 56.5t-20.5 50t-48.5 37t-87 14.5q-66 0 -124 -16.5t-109.5 -43t-94.5 -60.5t-76 -66v276q102 72 225.5 105.5t254.5 33.5q227 0 335.5 -88t108.5 -233v-393 q0 -53 10.5 -82t38.5 -29q27 0 52.5 11t39.5 18v-189q-53 -23 -126.5 -46t-180.5 -23q-51 0 -82.5 11t-50 28.5t-28 36t-13.5 32.5q-20 -16 -48 -35.5t-64.5 -36t-87 -26.5t-115.5 -10q-90 0 -148.5 24.5t-93.5 62t-48 83t-13 86.5zM424 281q0 -55 31.5 -80t66.5 -25 q20 0 43 8.5t42.5 19.5t35.5 22.5t27 19.5v241q-53 -23 -98.5 -43t-78 -43.5t-51 -52t-18.5 -67.5zM193 1290q0 55 39 96t98 41t98 -40.5t39 -96.5q0 -57 -39 -97t-98 -40t-98 41t-39 96zM703 1290q0 55 39 96t98 41t98 -40.5t39 -96.5q0 -57 -39 -97t-98 -40t-98 41t-39 96 z" />
<glyph unicode="&#xe5;" horiz-adv-x="1169" d="M72 238q0 74 29.5 126t80.5 91t122 66.5t155 53.5q57 18 92 29.5t56.5 19t34.5 12.5t28 13q0 29 -4 56.5t-20.5 50t-48.5 37t-87 14.5q-66 0 -124 -16.5t-109.5 -43t-94.5 -60.5t-76 -66v276q102 72 225.5 105.5t254.5 33.5q227 0 335.5 -88t108.5 -233v-393 q0 -53 10.5 -82t38.5 -29q27 0 52.5 11t39.5 18v-189q-53 -23 -126.5 -46t-180.5 -23q-51 0 -82.5 11t-50 28.5t-28 36t-13.5 32.5q-20 -16 -48 -35.5t-64.5 -36t-87 -26.5t-115.5 -10q-90 0 -148.5 24.5t-93.5 62t-48 83t-13 86.5zM424 281q0 -55 31.5 -80t66.5 -25 q20 0 43 8.5t42.5 19.5t35.5 22.5t27 19.5v241q-53 -23 -98.5 -43t-78 -43.5t-51 -52t-18.5 -67.5zM379 1358q0 43 15.5 80t43 64.5t65.5 44t81 16.5t81 -16.5t65.5 -44t44 -64.5t16.5 -80t-16.5 -81t-44 -65.5t-65.5 -44t-81 -16.5t-81 16.5t-65.5 44t-43 65.5t-15.5 81z M477 1358q0 -45 31 -77t76 -32t77 32t32 77t-32 75.5t-77 30.5t-76 -30.5t-31 -75.5z" />
<glyph unicode="&#xe6;" horiz-adv-x="1708" d="M72 240q0 82 42 139t102 96t125 61.5t112 36.5q51 14 81.5 24.5t51 17t36.5 12.5l35 14q0 45 -4 76t-19.5 51t-45 29.5t-78.5 9.5q-66 0 -122 -15.5t-105.5 -40t-93.5 -57t-83 -67.5v270q33 20 78 44t99.5 45.5t120 35.5t141.5 14q123 0 198.5 -30.5t122.5 -59.5 q16 12 40 27.5t58.5 29t81 23.5t105.5 10q92 0 180 -31.5t159 -97t114 -168t43 -245.5v-72h-656q4 -70 41 -112t83 -63.5t91 -28.5t68 -7q59 0 143 21.5t207 82.5v-229q-106 -47 -219 -75.5t-229 -28.5q-113 0 -219.5 31.5t-198.5 97.5q-106 -72 -204.5 -100.5t-195.5 -28.5 q-72 0 -125 22.5t-88.5 58t-54 82t-18.5 95.5zM426 285q0 -14 4 -33t14.5 -36t27.5 -28.5t46 -11.5q53 0 86 21.5t53 40.5v247q-57 -27 -100 -48t-72.5 -43.5t-44 -48t-14.5 -60.5zM985 600h326q-2 29 -8.5 67t-23.5 70.5t-48 55t-82 22.5q-72 0 -117 -52t-47 -163z" />
<glyph unicode="&#xe7;" horiz-adv-x="1046" d="M72 512q0 39 8 93t31.5 112.5t63.5 115t103.5 102.5t153.5 73.5t211 27.5t194.5 -19.5t133.5 -39.5v-283q-25 8 -58.5 17.5t-71.5 17.5t-76 14.5t-69 6.5q-41 0 -84 -12.5t-78.5 -40t-59 -73.5t-23.5 -112t23.5 -112t59 -75.5t78.5 -43t84 -13.5q63 0 144.5 20.5 t146.5 41.5v-283q-31 -10 -58.5 -20.5t-60 -17.5t-72.5 -14t-98 -11l-20 -43q55 -10 88 -33t51.5 -48.5t24.5 -50t6 -40.5q0 -90 -80 -144.5t-238 -54.5h-208v137q35 0 69.5 1t63 9.5t47 24.5t18.5 45q0 20 -10 32.5t-25.5 18.5t-32 8t-28.5 4l102 140q-139 18 -227 80.5 t-139 141.5t-69.5 160t-18.5 140z" />
<glyph unicode="&#xe8;" horiz-adv-x="1220" d="M72 514q0 111 36.5 206t109.5 165.5t182.5 110.5t254.5 40q86 0 175.5 -27.5t162 -90t119.5 -167t47 -257.5v-72h-717q20 -96 102.5 -153.5t186.5 -57.5t204.5 28.5t197.5 73.5v-223q-20 -10 -59.5 -28.5t-99 -36t-139 -30.5t-180.5 -13q-145 0 -254.5 42t-182.5 113.5 t-109.5 168.5t-36.5 208zM432 600h389q0 98 -48 156.5t-140 58.5q-88 0 -144.5 -58.5t-56.5 -156.5zM270 1470h389l172 -317h-192z" />
<glyph unicode="&#xe9;" horiz-adv-x="1220" d="M72 514q0 111 36.5 206t109.5 165.5t182.5 110.5t254.5 40q86 0 175.5 -27.5t162 -90t119.5 -167t47 -257.5v-72h-717q20 -96 102.5 -153.5t186.5 -57.5t204.5 28.5t197.5 73.5v-223q-20 -10 -59.5 -28.5t-99 -36t-139 -30.5t-180.5 -13q-145 0 -254.5 42t-182.5 113.5 t-109.5 168.5t-36.5 208zM432 600h389q0 98 -48 156.5t-140 58.5q-88 0 -144.5 -58.5t-56.5 -156.5zM436 1153l172 317h389l-369 -317h-192z" />
<glyph unicode="&#xea;" horiz-adv-x="1220" d="M72 514q0 111 36.5 206t109.5 165.5t182.5 110.5t254.5 40q86 0 175.5 -27.5t162 -90t119.5 -167t47 -257.5v-72h-717q20 -96 102.5 -153.5t186.5 -57.5t204.5 28.5t197.5 73.5v-223q-20 -10 -59.5 -28.5t-99 -36t-139 -30.5t-180.5 -13q-145 0 -254.5 42t-182.5 113.5 t-109.5 168.5t-36.5 208zM432 600h389q0 98 -48 156.5t-140 58.5q-88 0 -144.5 -58.5t-56.5 -156.5zM215 1153l182 346h428l182 -346h-215l-180 184l-182 -184h-215z" />
<glyph unicode="&#xeb;" horiz-adv-x="1220" d="M72 514q0 111 36.5 206t109.5 165.5t182.5 110.5t254.5 40q86 0 175.5 -27.5t162 -90t119.5 -167t47 -257.5v-72h-717q20 -96 102.5 -153.5t186.5 -57.5t204.5 28.5t197.5 73.5v-223q-20 -10 -59.5 -28.5t-99 -36t-139 -30.5t-180.5 -13q-145 0 -254.5 42t-182.5 113.5 t-109.5 168.5t-36.5 208zM432 600h389q0 98 -48 156.5t-140 58.5q-88 0 -144.5 -58.5t-56.5 -156.5zM219 1290q0 55 39 96t98 41t98 -40.5t39 -96.5q0 -57 -39 -97t-98 -40t-98 41t-39 96zM729 1290q0 55 39 96t98 41t98 -40.5t39 -96.5q0 -57 -39 -97t-98 -40t-98 41 t-39 96z" />
<glyph unicode="&#xec;" horiz-adv-x="626" d="M133 0v1018h361v-1018h-361zM-25 1470h389l172 -317h-192z" />
<glyph unicode="&#xed;" horiz-adv-x="626" d="M133 0v1018h361v-1018h-361zM121 1153l172 317h389l-369 -317h-192z" />
<glyph unicode="&#xee;" horiz-adv-x="626" d="M133 0v1018h361v-1018h-361zM-80 1153l182 346h428l182 -346h-215l-180 184l-182 -184h-215z" />
<glyph unicode="&#xef;" horiz-adv-x="626" d="M133 0v1018h361v-1018h-361zM-76 1290q0 55 39 96t98 41t98 -40.5t39 -96.5q0 -57 -39 -97t-98 -40t-98 41t-39 96zM434 1290q0 55 39 96t98 41t98 -40.5t39 -96.5q0 -57 -39 -97t-98 -40t-98 41t-39 96z" />
<glyph unicode="&#xf0;" horiz-adv-x="1310" d="M72 498q0 135 47 232t121.5 161.5t169 95.5t186.5 31q47 0 80 -8.5t61 -18.5q-27 41 -69.5 91.5t-77.5 78.5l-326 -108l-33 108l248 82q-10 8 -20 14l-26 16q-15 9 -40.5 21.5t-64.5 30.5l207 80q53 -16 100 -33.5t94 -46.5l252 80l33 -105l-166 -57q37 -29 84 -69.5 t100 -106.5q96 -119 151.5 -253t55.5 -294q0 -117 -37 -215t-108.5 -170t-178 -112.5t-243.5 -40.5q-180 0 -297 51t-184.5 128t-93 167t-25.5 170zM451 510q0 -117 51 -188.5t153 -71.5t153.5 71.5t51.5 188.5t-51 187.5t-154 70.5q-102 0 -153 -70.5t-51 -187.5z" />
<glyph unicode="&#xf1;" horiz-adv-x="1302" d="M115 0v1018h360v-146q86 92 173 128t188 36q141 0 216.5 -55t108.5 -129t37 -146.5t4 -107.5v-598h-360v528q0 25 -1 64t-14.5 76t-44 63.5t-88.5 26.5q-45 0 -80.5 -18.5t-62.5 -45t-45.5 -53.5t-30.5 -43v-598h-360zM256 1153q0 86 22.5 147.5t57 99.5t75.5 55.5 t78 17.5t82 -13.5t92 -29.5q45 -16 84 -31t62 -15q41 0 59 30t18 59h162q0 -156 -64.5 -238t-170.5 -82q-39 0 -84 13.5t-88 29.5t-81 29.5t-63 13.5q-45 0 -61 -28.5t-21 -57.5h-159z" />
<glyph unicode="&#xf2;" horiz-adv-x="1310" d="M72 510q0 111 36.5 207t109.5 166.5t182.5 111.5t254.5 41t255 -41t182.5 -111.5t109.5 -166.5t37 -207t-37 -208t-109.5 -168t-182 -111.5t-255.5 -40.5q-145 0 -254.5 40.5t-182.5 111.5t-109.5 168t-36.5 208zM451 510q0 -117 51 -188.5t153 -71.5t153.5 71.5 t51.5 188.5t-51 187.5t-154 70.5q-102 0 -153 -70.5t-51 -187.5zM315 1470h389l172 -317h-192z" />
<glyph unicode="&#xf3;" horiz-adv-x="1310" d="M72 510q0 111 36.5 207t109.5 166.5t182.5 111.5t254.5 41t255 -41t182.5 -111.5t109.5 -166.5t37 -207t-37 -208t-109.5 -168t-182 -111.5t-255.5 -40.5q-145 0 -254.5 40.5t-182.5 111.5t-109.5 168t-36.5 208zM451 510q0 -117 51 -188.5t153 -71.5t153.5 71.5 t51.5 188.5t-51 187.5t-154 70.5q-102 0 -153 -70.5t-51 -187.5zM481 1153l172 317h389l-369 -317h-192z" />
<glyph unicode="&#xf4;" horiz-adv-x="1310" d="M72 510q0 111 36.5 207t109.5 166.5t182.5 111.5t254.5 41t255 -41t182.5 -111.5t109.5 -166.5t37 -207t-37 -208t-109.5 -168t-182 -111.5t-255.5 -40.5q-145 0 -254.5 40.5t-182.5 111.5t-109.5 168t-36.5 208zM451 510q0 -117 51 -188.5t153 -71.5t153.5 71.5 t51.5 188.5t-51 187.5t-154 70.5q-102 0 -153 -70.5t-51 -187.5zM260 1153l182 346h428l182 -346h-215l-180 184l-182 -184h-215z" />
<glyph unicode="&#xf5;" horiz-adv-x="1310" d="M72 510q0 111 36.5 207t109.5 166.5t182.5 111.5t254.5 41t255 -41t182.5 -111.5t109.5 -166.5t37 -207t-37 -208t-109.5 -168t-182 -111.5t-255.5 -40.5q-145 0 -254.5 40.5t-182.5 111.5t-109.5 168t-36.5 208zM451 510q0 -117 51 -188.5t153 -71.5t153.5 71.5 t51.5 188.5t-51 187.5t-154 70.5q-102 0 -153 -70.5t-51 -187.5zM260 1153q0 86 22.5 147.5t57 99.5t75.5 55.5t78 17.5t82 -13.5t92 -29.5q45 -16 84 -31t62 -15q41 0 59 30t18 59h162q0 -156 -64.5 -238t-170.5 -82q-39 0 -84 13.5t-88 29.5t-81 29.5t-63 13.5 q-45 0 -61 -28.5t-21 -57.5h-159z" />
<glyph unicode="&#xf6;" horiz-adv-x="1310" d="M72 510q0 111 36.5 207t109.5 166.5t182.5 111.5t254.5 41t255 -41t182.5 -111.5t109.5 -166.5t37 -207t-37 -208t-109.5 -168t-182 -111.5t-255.5 -40.5q-145 0 -254.5 40.5t-182.5 111.5t-109.5 168t-36.5 208zM451 510q0 -117 51 -188.5t153 -71.5t153.5 71.5 t51.5 188.5t-51 187.5t-154 70.5q-102 0 -153 -70.5t-51 -187.5zM264 1290q0 55 39 96t98 41t98 -40.5t39 -96.5q0 -57 -39 -97t-98 -40t-98 41t-39 96zM774 1290q0 55 39 96t98 41t98 -40.5t39 -96.5q0 -57 -39 -97t-98 -40t-98 41t-39 96z" />
<glyph unicode="&#xf7;" horiz-adv-x="1366" d="M121 575v234h1124v-234h-1124zM537 276q0 59 43 102.5t102 43.5t103 -43t44 -103q0 -59 -44 -103t-103 -44t-102 44t-43 103zM537 1108q0 59 43 103t102 44t103 -44t44 -103t-44 -102t-103 -43t-102 43t-43 102z" />
<glyph unicode="&#xf8;" horiz-adv-x="1310" d="M72 504q0 100 33.5 196.5t104.5 171t180.5 119.5t262.5 45q88 0 173 -16t161 -57l141 155l86 -78l-131 -147q80 -76 118 -174t38 -209q0 -84 -28.5 -177t-95 -171t-177.5 -129t-276 -51q-76 0 -131.5 8t-96.5 20.5t-67.5 24.5t-42.5 22l-142 -157l-86 75l133 150l-23 23 q-13 13 -34 38q-49 61 -74.5 144.5t-25.5 173.5zM451 508q0 -23 4 -55.5t14 -65.5l309 344q-37 31 -69.5 36t-49.5 5q-57 0 -97 -21.5t-64.5 -58.5t-35.5 -85t-11 -99zM535 289q55 -43 122 -43q31 0 67 11t66.5 42t50 83t19.5 136q0 51 -6 75.5t-10 37.5z" />
<glyph unicode="&#xf9;" horiz-adv-x="1302" d="M100 420v598h361v-529q0 -25 1 -63.5t14 -75.5t43 -63.5t89 -26.5q45 0 82 19.5t63.5 46t45 53.5t28.5 41v598h361v-1018h-361v145q-72 -78 -154.5 -120.5t-205.5 -42.5q-141 0 -217 55t-108.5 129t-37 146.5t-4.5 107.5zM311 1470h389l172 -317h-192z" />
<glyph unicode="&#xfa;" horiz-adv-x="1302" d="M100 420v598h361v-529q0 -25 1 -63.5t14 -75.5t43 -63.5t89 -26.5q45 0 82 19.5t63.5 46t45 53.5t28.5 41v598h361v-1018h-361v145q-72 -78 -154.5 -120.5t-205.5 -42.5q-141 0 -217 55t-108.5 129t-37 146.5t-4.5 107.5zM498 1153l172 317h389l-369 -317h-192z" />
<glyph unicode="&#xfb;" horiz-adv-x="1302" d="M100 420v598h361v-529q0 -25 1 -63.5t14 -75.5t43 -63.5t89 -26.5q45 0 82 19.5t63.5 46t45 53.5t28.5 41v598h361v-1018h-361v145q-72 -78 -154.5 -120.5t-205.5 -42.5q-141 0 -217 55t-108.5 129t-37 146.5t-4.5 107.5zM256 1153l182 346h428l182 -346h-215l-180 184 l-182 -184h-215z" />
<glyph unicode="&#xfc;" horiz-adv-x="1302" d="M100 420v598h361v-529q0 -25 1 -63.5t14 -75.5t43 -63.5t89 -26.5q45 0 82 19.5t63.5 46t45 53.5t28.5 41v598h361v-1018h-361v145q-72 -78 -154.5 -120.5t-205.5 -42.5q-141 0 -217 55t-108.5 129t-37 146.5t-4.5 107.5zM260 1290q0 55 39 96t98 41t98 -40.5t39 -96.5 q0 -57 -39 -97t-98 -40t-98 41t-39 96zM770 1290q0 55 39 96t98 41t98 -40.5t39 -96.5q0 -57 -39 -97t-98 -40t-98 41t-39 96z" />
<glyph unicode="&#xfd;" horiz-adv-x="1193" d="M27 1018h387l207 -506l235 506h350l-692 -1481h-364l280 596zM422 1153l172 317h389l-369 -317h-192z" />
<glyph unicode="&#xfe;" horiz-adv-x="1304" d="M113 -463v1849h360v-460q14 12 39 31.5t59.5 37t84 29.5t114.5 12q76 0 158 -28.5t149.5 -91t111.5 -161t44 -239.5q0 -98 -27.5 -194.5t-87 -172t-152 -121.5t-221.5 -46q-117 0 -177 27.5t-95 49.5v-522h-360zM473 305q41 -23 83 -44t99 -21q84 0 141.5 69.5 t57.5 198.5q0 74 -18.5 123t-47 79.5t-64.5 43t-69 12.5q-39 0 -68.5 -8t-52 -19.5t-38 -24t-23.5 -20.5v-389z" />
<glyph unicode="&#xff;" horiz-adv-x="1193" d="M27 1018h387l207 -506l235 506h350l-692 -1481h-364l280 596zM205 1290q0 55 39 96t98 41t98 -40.5t39 -96.5q0 -57 -39 -97t-98 -40t-98 41t-39 96zM715 1290q0 55 39 96t98 41t98 -40.5t39 -96.5q0 -57 -39 -97t-98 -40t-98 41t-39 96z" />
<glyph unicode="&#x131;" horiz-adv-x="626" d="M133 0v1018h361v-1018h-361z" />
<glyph unicode="&#x152;" horiz-adv-x="2217" d="M84 705q0 63 11 134.5t39 140.5t73 133.5t115 117.5q78 59 164.5 91t175 46t170 16t149.5 2h1120v-278h-604v-254h565v-279h-565v-296h614v-279h-1208q-43 0 -106.5 2t-137 15.5t-152.5 41t-155 80.5q-90 61 -142 138t-81 156t-37 151t-8 121zM510 694 q0 -119 31.5 -198.5t94 -128t156 -68.5t218.5 -20h69v829h-69q-125 0 -218.5 -20.5t-156 -68.5t-94 -127t-31.5 -198z" />
<glyph unicode="&#x153;" horiz-adv-x="1923" d="M72 498q0 117 36.5 215t109.5 170.5t180.5 112.5t248.5 40q78 0 137.5 -10t103.5 -25.5t74.5 -31t51.5 -27.5q57 33 132 63.5t197 30.5q90 0 182.5 -26.5t167 -90t122 -168t47.5 -259.5v-70h-674q6 -74 45 -116t86 -63.5t91 -26.5t63 -5q59 0 114 11t102.5 27.5t85 33 t62.5 28.5v-227q-72 -31 -181.5 -66.5t-264.5 -35.5q-68 0 -121 8t-94 21.5t-75 31.5t-65 41q-25 -16 -54.5 -34.5t-71.5 -34t-101 -24.5t-141 -9q-154 0 -265.5 40.5t-185.5 111.5t-109.5 165.5t-35.5 198.5zM451 510q0 -49 11 -96t35.5 -84t63.5 -58.5t94 -21.5 q84 0 144.5 62.5t60.5 197.5q0 129 -55 193.5t-150 64.5q-92 0 -148 -63.5t-56 -194.5zM1184 600h358q-4 27 -13 63.5t-29.5 70.5t-55.5 56.5t-90 22.5t-88 -20.5t-51.5 -51t-24.5 -68.5t-6 -73z" />
<glyph unicode="&#x178;" horiz-adv-x="1538" d="M12 1386h434l318 -436l319 436h443l-543 -751v-635h-418v627zM377 1618q0 55 39 96t98 41t98 -40.5t39 -96.5q0 -57 -39 -97t-98 -40t-98 41t-39 96zM887 1618q0 55 39 96t98 41t98 -40.5t39 -96.5q0 -57 -39 -97t-98 -40t-98 41t-39 96z" />
<glyph unicode="&#x2c6;" horiz-adv-x="681" d="M-55 1153l182 346h428l182 -346h-215l-180 184l-182 -184h-215z" />
<glyph unicode="&#x2da;" horiz-adv-x="681" d="M135 1358q0 43 15.5 80t43 64.5t65.5 44t81 16.5t81 -16.5t65.5 -44t44 -64.5t16.5 -80t-16.5 -81t-44 -65.5t-65.5 -44t-81 -16.5t-81 16.5t-65.5 44t-43 65.5t-15.5 81zM233 1358q0 -45 31 -77t76 -32t77 32t32 77t-32 75.5t-77 30.5t-76 -30.5t-31 -75.5z" />
<glyph unicode="&#x2dc;" horiz-adv-x="681" d="M-55 1153q0 86 22.5 147.5t57 99.5t75.5 55.5t78 17.5t82 -13.5t92 -29.5q45 -16 84 -31t62 -15q41 0 59 30t18 59h162q0 -156 -64.5 -238t-170.5 -82q-39 0 -84 13.5t-88 29.5t-81 29.5t-63 13.5q-45 0 -61 -28.5t-21 -57.5h-159z" />
<glyph unicode="&#x2000;" horiz-adv-x="944" />
<glyph unicode="&#x2001;" horiz-adv-x="1890" />
<glyph unicode="&#x2002;" horiz-adv-x="944" />
<glyph unicode="&#x2003;" horiz-adv-x="1890" />
<glyph unicode="&#x2004;" horiz-adv-x="628" />
<glyph unicode="&#x2005;" horiz-adv-x="471" />
<glyph unicode="&#x2006;" horiz-adv-x="313" />
<glyph unicode="&#x2007;" horiz-adv-x="313" />
<glyph unicode="&#x2008;" horiz-adv-x="235" />
<glyph unicode="&#x2009;" horiz-adv-x="376" />
<glyph unicode="&#x200a;" horiz-adv-x="104" />
<glyph unicode="&#x2010;" horiz-adv-x="1003" d="M174 348v334h655v-334h-655z" />
<glyph unicode="&#x2011;" horiz-adv-x="1003" d="M174 348v334h655v-334h-655z" />
<glyph unicode="&#x2012;" horiz-adv-x="1003" d="M174 348v334h655v-334h-655z" />
<glyph unicode="&#x2013;" horiz-adv-x="1024" d="M-12 387v250h1048v-250h-1048z" />
<glyph unicode="&#x2014;" horiz-adv-x="2048" d="M-12 387v250h2072v-250h-2072z" />
<glyph unicode="&#x2018;" horiz-adv-x="618" d="M76 965q0 63 24.5 133.5t81 133t146.5 108.5t219 65v-64q-51 -18 -83 -51t-49.5 -71.5t-22.5 -81.5t-3 -82q82 -23 120 -74t38 -123q0 -41 -16.5 -79t-44 -66.5t-67.5 -46t-85 -17.5q-68 0 -117 29t-80 75t-46 102.5t-15 109.5z" />
<glyph unicode="&#x2019;" horiz-adv-x="618" d="M72 649v64q51 18 82.5 51t49 71.5t22.5 80.5t3 83q-82 23 -119.5 74t-37.5 123q0 41 16 79t44 66.5t67 46t86 17.5q68 0 117 -28.5t79.5 -75t46 -102.5t15.5 -109q0 -66 -24.5 -135.5t-81 -132t-146.5 -109t-219 -64.5z" />
<glyph unicode="&#x201a;" horiz-adv-x="618" d="M72 203q0 41 16 78.5t44 66.5t67 46.5t86 17.5q68 0 117 -29t79.5 -75t46 -102t15.5 -110q0 -66 -24.5 -135.5t-81 -131.5t-146.5 -108.5t-219 -64.5v63q51 18 82.5 51t49 72t22.5 81t3 83q-82 23 -119.5 74t-37.5 123z" />
<glyph unicode="&#x201c;" horiz-adv-x="1150" d="M76 965q0 63 24.5 133.5t81 133t146.5 108.5t219 65v-64q-51 -18 -83 -51t-49.5 -71.5t-22.5 -81.5t-3 -82q82 -23 120 -74t38 -123q0 -41 -16.5 -79t-44 -66.5t-67.5 -46t-85 -17.5q-68 0 -117 29t-80 75t-46 102.5t-15 109.5zM627 965q0 63 24.5 133.5t80.5 133 t146.5 108.5t219.5 65v-64q-51 -18 -83 -51t-49.5 -71.5t-22.5 -81.5t-3 -82q82 -23 120 -74t38 -123q0 -41 -16.5 -79t-44 -66.5t-67.5 -46t-85 -17.5q-68 0 -117 29t-80 75t-46 102.5t-15 109.5z" />
<glyph unicode="&#x201d;" horiz-adv-x="1150" d="M53 649v64q51 18 83 51t49.5 71.5t22.5 80.5t3 83q-82 23 -120 74t-38 123q0 41 16.5 79t44 66.5t66.5 46t86 17.5q68 0 117 -28.5t80 -75t46 -102.5t15 -109q0 -66 -24.5 -135.5t-81 -132t-146.5 -109t-219 -64.5zM604 649v64q51 18 83 51t49.5 71.5t22.5 80.5t3 83 q-82 23 -120 74t-38 123q0 41 16.5 79t44 66.5t66.5 46t86 17.5q68 0 117 -28.5t79.5 -75t46 -102.5t15.5 -109q0 -66 -24.5 -135.5t-81 -132t-146.5 -109t-219 -64.5z" />
<glyph unicode="&#x201e;" horiz-adv-x="1150" d="M53 203q0 41 16.5 78.5t44 66.5t66.5 46.5t86 17.5q68 0 117 -29t80 -75t46 -102t15 -110q0 -66 -24.5 -135.5t-81 -131.5t-146.5 -108.5t-219 -64.5v63q51 18 83 51t49.5 72t22.5 81t3 83q-82 23 -120 74t-38 123zM604 203q0 41 16.5 78.5t44 66.5t66.5 46.5t86 17.5 q68 0 117 -29t79.5 -75t46 -102t15.5 -110q0 -66 -24.5 -135.5t-81 -131.5t-146.5 -108.5t-219 -64.5v63q51 18 83 51t49.5 72t22.5 81t3 83q-82 23 -120 74t-38 123z" />
<glyph unicode="&#x2022;" horiz-adv-x="1024" d="M180 694q0 70 26.5 130.5t72 105.5t105.5 70.5t128 25.5t128 -25.5t105.5 -70.5t72 -105.5t26.5 -130.5q0 -68 -25.5 -128t-71 -105t-105.5 -72t-130 -27t-130 27t-105.5 72t-71 105t-25.5 128z" />
<glyph unicode="&#x2026;" horiz-adv-x="2048" d="M127 197q0 45 16.5 83.5t46 68.5t68.5 46.5t84 16.5q43 0 83 -17.5t68.5 -46.5t46 -67.5t17.5 -83.5t-17.5 -84t-46 -69t-67.5 -46t-84 -16t-84 16t-68.5 46t-46 69t-16.5 84zM809 197q0 45 17.5 83.5t46 68.5t68.5 46.5t83 16.5t83 -17.5t68.5 -46.5t46 -67.5 t17.5 -83.5t-17.5 -84t-46 -69t-67.5 -46t-84 -16t-84 16t-68.5 46t-46 69t-16.5 84zM1491 197q0 45 17.5 83.5t46 68.5t68.5 46.5t83 16.5q45 0 84 -17.5t67.5 -46.5t46 -67.5t17.5 -83.5t-17.5 -84t-46 -69t-67.5 -46t-84 -16q-43 0 -83 16t-68.5 46t-46 69t-17.5 84z" />
<glyph unicode="&#x202f;" horiz-adv-x="376" />
<glyph unicode="&#x2039;" horiz-adv-x="724" d="M31 498l315 493h334l-313 -493l313 -498h-334z" />
<glyph unicode="&#x203a;" horiz-adv-x="724" d="M45 0l313 498l-313 493h334l315 -493l-315 -498h-334z" />
<glyph unicode="&#x205f;" horiz-adv-x="471" />
<glyph unicode="&#x2122;" horiz-adv-x="1941" d="M37 1194v192h801v-192h-285v-621h-236v621h-280zM932 573v813h356l113 -444l119 444h348v-813h-223v576l-154 -576h-184l-152 576v-576h-223z" />
<glyph unicode="&#xe000;" horiz-adv-x="1020" d="M0 1020h1020v-1020h-1020v1020z" />
<glyph unicode="&#xfb01;" horiz-adv-x="1333" d="M14 721v244h166v18q0 70 19.5 144.5t68.5 136t133 101.5t215 40q55 0 86 -5t64 -11v-252q-18 4 -44 7t-58 3q-57 0 -90 -37t-33 -109v-36h182v-244h-182v-721h-361v721h-166zM840 0v1018h360v-1018h-360zM868 1253q0 63 44 107.5t108 44.5q63 0 107 -44t44 -108 q0 -63 -44 -107t-107 -44t-107.5 44t-44.5 107z" />
<glyph unicode="&#xfb02;" horiz-adv-x="1333" d="M14 721v244h166v18q0 88 24.5 165t78 134t136.5 90t197 33q55 0 88 -5t62 -11v-252q-18 4 -44 7t-58 3q-57 0 -90 -37t-33 -109v-36h182v-244h-182v-721h-361v721h-166zM840 0v1386h360v-1386h-360z" />
<glyph unicode="&#xfb03;" horiz-adv-x="2138" d="M1644 0v1018h361v-1018h-361zM1673 1253q0 63 44 107.5t107 44.5t107.5 -44t44.5 -108q0 -63 -44 -107t-108 -44q-63 0 -107 44t-44 107zM770 721v244h166v18q0 72 20.5 146.5t71 136t134 100.5t210.5 39q55 0 101.5 -6t79.5 -13v-258q-29 6 -65 12.5t-68 6.5 q-57 0 -90 -37t-33 -109v-36h182v-244h-182v-721h-361v721h-166zM14 721v244h166v18q0 72 20.5 146.5t71 136t134 100.5t210.5 39q55 0 101.5 -6t79.5 -13v-258q-29 6 -65 12.5t-68 6.5q-57 0 -90 -37t-33 -109v-36h182v-244h-182v-721h-361v721h-166z" />
<glyph unicode="&#xfb04;" horiz-adv-x="2138" d="M1644 0v1386h361v-1386h-361zM770 721v244h166v18q0 72 20.5 146.5t71 136t134 100.5t210.5 39q55 0 101.5 -6t79.5 -13v-258q-29 6 -65 12.5t-68 6.5q-57 0 -90 -37t-33 -109v-36h182v-244h-182v-721h-361v721h-166zM14 721v244h166v18q0 72 20.5 146.5t71 136 t134 100.5t210.5 39q55 0 101.5 -6t79.5 -13v-258q-29 6 -65 12.5t-68 6.5q-57 0 -90 -37t-33 -109v-36h182v-244h-182v-721h-361v721h-166z" />
</font>
</defs>
</svg>
